<svg width="478" height="140" viewBox="0 0 478 140" fill="none" xmlns="http://www.w3.org/2000/svg">
<path d="M0.344227 65.0531C1.32324 65.2775 2.30226 65.512 3.28127 65.7363C3.98493 65.8995 4.69885 66.0116 5.37192 66.2462C6.04499 66.4807 6.4529 66.2771 6.89142 65.7672C8.00301 64.4721 9.16562 63.2179 10.369 61.8718C10.6341 62.7896 10.5526 63.6461 10.6546 64.4925C10.7871 65.502 10.8483 66.5113 10.8993 67.5209C10.9197 67.9186 11.0828 68.1129 11.4295 68.2658C12.8674 68.8879 14.2952 69.53 15.723 70.1724C15.9881 70.2948 16.2838 70.3562 16.5387 70.6315C14.9886 71.274 13.4895 71.9571 11.9598 72.5281C11.195 72.8137 10.7667 73.1403 10.7361 74.0683C10.6953 75.5673 10.4505 77.0558 10.2873 78.5447C10.2669 78.7079 10.318 78.8917 10.114 79.0855C9.41037 78.2798 8.70665 77.4741 8.01318 76.6685C7.47268 76.0464 6.92204 75.4243 6.41214 74.7818C6.20818 74.5269 6.01435 74.4963 5.70841 74.5677C3.85237 74.9756 1.99637 75.3528 0.0179443 75.7607C0.82359 74.435 1.4865 73.13 2.35334 71.9879C3.18958 70.8763 3.22009 69.9786 2.39404 68.8569C1.62919 67.8269 1.07858 66.6439 0.436099 65.5222C0.364713 65.3998 0.252549 65.2879 0.323936 65.0636L0.344227 65.0531Z" fill="#CBAC53"/>
<path d="M50.4269 139.619C49.5805 139.364 48.8972 138.967 48.2037 138.63C41.269 135.234 34.9666 130.931 29.276 125.699C25.2682 122.018 21.7296 117.918 18.5172 113.533C18.2316 113.146 18.3132 112.972 18.6702 112.748C19.5268 112.197 20.3834 111.647 21.1993 111.045C21.6378 110.719 21.8213 110.862 22.0661 111.27C23.6366 113.962 25.3397 116.562 27.2161 119.05C33.4166 127.249 40.9834 133.908 49.8251 139.13C49.9985 139.232 50.2229 139.293 50.4167 139.609L50.4269 139.619Z" fill="#CBAC53"/>
<path d="M50.5392 0.66509C49.8763 1.0628 49.2745 1.43974 48.6728 1.80686C42.758 5.40665 37.4142 9.72023 32.6619 14.7477C28.5827 19.0613 25.0746 23.8034 22.107 28.9329C21.8214 29.4224 21.6378 29.4937 21.1687 29.147C20.3529 28.5351 19.4963 27.9845 18.6396 27.4441C18.2623 27.2095 18.3031 27.0158 18.5275 26.6997C21.9132 22.0393 25.7171 17.7562 29.9901 13.8913C35.9457 8.51706 42.5948 4.18295 49.866 0.807499C50.019 0.736115 50.172 0.674988 50.3351 0.613802C50.3657 0.603604 50.4168 0.634496 50.5392 0.66509Z" fill="#CBAC53"/>
<path d="M11.5418 85C11.6744 86.2747 11.7967 87.3456 11.8885 88.4163C11.9293 88.8446 12.1026 89.0792 12.5208 89.2424C13.5508 89.6299 14.5501 90.0786 15.6719 90.5375C14.5297 91.0474 13.4997 91.5269 12.4595 91.9552C12.0924 92.1081 11.97 92.322 11.9496 92.7095C11.8884 93.8007 11.7762 94.9023 11.6845 96.0547C11.3377 95.9017 11.1644 95.6056 10.9502 95.371C10.4301 94.8203 9.88963 94.2697 9.42052 93.6681C9.10438 93.2602 8.76789 93.2297 8.31918 93.3419C7.29937 93.6071 6.26932 93.8416 5.08635 94.1272C5.68803 93.0768 6.18775 92.1283 6.75884 91.2411C7.04439 90.7924 7.00358 90.4662 6.73843 90.0481C6.17754 89.1813 5.65741 88.2939 5.05573 87.3149C5.96335 87.3149 6.7588 87.5088 7.48287 87.7536C8.55366 88.1105 9.26762 87.8961 9.87951 86.9579C10.318 86.295 10.8993 85.7444 11.5418 85Z" fill="#CBAC53"/>
<path d="M4.98439 53.1631C5.63707 52.1025 6.16735 51.164 6.75884 50.2666C7.02399 49.8689 7.01379 49.5733 6.75884 49.1756C6.18775 48.2476 5.65741 47.2889 5.05572 46.2487C6.25909 46.5343 7.35034 46.7586 8.43133 47.0544C8.81886 47.1564 9.0534 47.0952 9.30835 46.7994C10.0426 45.953 10.7973 45.1272 11.6437 44.1992C11.7457 45.4127 11.8783 46.5142 11.9191 47.6156C11.9395 48.0745 12.1128 48.2782 12.5106 48.4516C13.5202 48.8697 14.4991 49.3387 15.6311 49.8383C14.4685 50.3278 13.4488 50.7768 12.4188 51.1848C12.0823 51.3173 11.9191 51.4904 11.8885 51.8575C11.7865 52.969 11.654 54.0806 11.5316 55.1921C11.3276 55.2839 11.2663 55.1004 11.1848 54.9984C10.5321 54.2438 9.87951 53.4992 9.24723 52.7343C9.01267 52.4488 8.78822 52.3371 8.3803 52.4391C7.3197 52.7042 6.23874 52.8979 4.97418 53.1631H4.98439Z" fill="#CBAC53"/>
<path d="M12.6227 33.0324C13.5304 33.2363 14.2545 33.3791 14.9581 33.5831C15.2947 33.6749 15.4986 33.6137 15.723 33.3486C16.2125 32.7673 16.7325 32.2268 17.3342 31.564C17.4158 32.4512 17.5077 33.1954 17.5383 33.9501C17.5485 34.307 17.681 34.4808 17.9971 34.6133C18.6906 34.8989 19.3739 35.2249 20.1999 35.6022C19.3841 35.9489 18.7008 36.2548 18.0073 36.5199C17.6912 36.6423 17.5382 36.816 17.5076 37.1628C17.4464 37.9174 17.3445 38.6614 17.2527 39.4976C16.651 38.9877 16.2226 38.417 15.7943 37.8663C15.4782 37.4584 15.1417 37.4071 14.693 37.5193C14.0403 37.6824 13.3773 37.805 12.5717 37.9784C13.0408 37.2033 13.4182 36.5305 13.8364 35.888C14.0097 35.6127 14.0097 35.4185 13.8364 35.1431C13.4386 34.5007 13.0816 33.838 12.6227 33.0324Z" fill="#CBAC53"/>
<path d="M17.3444 108.822C16.7427 108.149 16.243 107.629 15.7841 107.088C15.5291 106.783 15.264 106.711 14.8969 106.813C14.2034 106.997 13.51 107.149 12.6329 107.353C13.0714 106.578 13.4182 105.936 13.8057 105.334C14.0199 104.998 14.0097 104.743 13.7955 104.417C13.3876 103.805 13.0306 103.162 12.5819 102.418C13.4283 102.591 14.1626 102.704 14.8662 102.897C15.264 103.009 15.4986 102.897 15.7332 102.602C16.1921 102.041 16.6816 101.49 17.2527 100.827C17.3546 101.724 17.4464 102.449 17.5076 103.173C17.5382 103.55 17.6809 103.764 18.0684 103.897C18.7619 104.141 19.4248 104.457 20.2202 104.794C19.4044 105.161 18.7212 105.477 18.0175 105.773C17.7014 105.905 17.5687 106.079 17.5585 106.436C17.5279 107.17 17.4362 107.904 17.3546 108.832L17.3444 108.822Z" fill="#CBAC53"/>
<path d="M50.7839 139.772C50.7839 139.772 50.8144 139.741 50.8245 139.741C50.8347 139.741 50.8551 139.762 50.8653 139.772C50.8551 139.772 50.8347 139.803 50.8245 139.803C50.8144 139.803 50.8043 139.782 50.7839 139.762V139.772Z" fill="#CBAC53"/>
<path d="M50.5694 139.69C50.5694 139.69 50.539 139.66 50.5289 139.65C50.5492 139.64 50.5592 139.619 50.5795 139.619C50.5998 139.619 50.6099 139.639 50.6201 139.66C50.5998 139.67 50.5896 139.68 50.5694 139.7V139.69Z" fill="#CBAC53"/>
<path d="M98.0007 61.6064C98.0007 61.8818 98.0211 62.1572 98.0211 62.4325C98.0211 79.4321 98.0211 96.4215 98.0211 113.421C98.0211 117.725 94.9719 120.764 90.6582 120.764C77.727 120.764 64.8061 120.764 51.875 120.764C47.5714 120.764 44.5324 117.715 44.5324 113.391C44.5324 110.301 44.5222 107.201 44.5426 104.111C44.5426 103.611 44.4202 103.468 43.9103 103.478C42.3398 103.509 40.7694 103.499 39.2091 103.488C37.7405 103.488 36.6798 102.489 36.69 101.123C36.69 99.7663 37.7608 98.7669 39.2293 98.7669C40.7998 98.7669 42.3703 98.7465 43.9306 98.7669C44.3793 98.7669 44.563 98.6957 44.5426 98.1858C44.5018 97.1048 44.512 96.0237 44.5426 94.9427C44.5426 94.545 44.4304 94.4331 44.0429 94.4433C42.4112 94.4637 40.7795 94.4535 39.1478 94.4433C37.7201 94.4433 36.6901 93.4439 36.7003 92.0876C36.7003 90.7619 37.7813 89.742 39.1784 89.7318C40.7897 89.7318 42.401 89.7216 44.0123 89.7318C44.41 89.7318 44.5732 89.65 44.5528 89.2115C44.5222 88.1305 44.5222 87.0499 44.5528 85.9689C44.563 85.5406 44.4202 85.4284 44.0123 85.4386C42.3806 85.459 40.7489 85.459 39.1172 85.4386C37.9138 85.4284 37.0369 84.7145 36.7717 83.5928C36.527 82.5526 37.0266 81.4617 37.9852 80.9722C38.4033 80.758 38.8622 80.6866 39.3415 80.6968C40.912 80.6968 42.4826 80.6966 44.0429 80.7068C44.4304 80.7068 44.5426 80.615 44.5426 80.2173C44.5324 73.7111 44.5324 67.2049 44.5426 60.6987C44.5426 60.2602 44.3998 60.1789 44.0021 60.1789C42.35 60.1993 40.6979 60.1993 39.0459 60.1789C37.8731 60.1687 36.9654 59.3833 36.7411 58.2105C36.5371 57.1704 37.1388 56.0794 38.1586 55.6307C38.4748 55.488 38.8113 55.4779 39.158 55.4779C40.7693 55.4779 42.3806 55.4674 43.9919 55.4878C44.4406 55.4878 44.5732 55.3758 44.563 54.9271C44.5324 53.8462 44.5324 52.765 44.563 51.6841C44.5732 51.2456 44.41 51.164 44.0225 51.1742C42.3704 51.1946 40.7184 51.1946 39.0663 51.1742C37.8425 51.1538 36.9144 50.2971 36.7309 49.0734C36.5779 47.9823 37.3122 46.8812 38.4136 46.5344C38.6991 46.4427 38.9949 46.4528 39.2906 46.4528C40.8815 46.4528 42.4723 46.4426 44.0632 46.4528C44.4507 46.4528 44.5732 46.3404 44.563 45.9528C44.5426 44.8311 44.5426 43.7095 44.563 42.5878C44.563 42.2003 44.4202 42.1392 44.0836 42.1392C42.4519 42.1494 40.8203 42.1392 39.1886 42.1392C37.7915 42.1392 36.7207 41.1191 36.7105 39.7934C36.7105 38.4779 37.7098 37.4481 39.0968 37.4277C40.7285 37.3971 42.3602 37.3971 43.9919 37.4277C44.4406 37.4277 44.563 37.3053 44.563 36.8566C44.5426 33.6749 44.5528 30.5033 44.563 27.3216C44.563 23.0895 47.6223 20.0408 51.8545 20.0408C64.8876 20.0408 77.9208 20.0408 90.9539 20.0408C94.921 20.0408 98.0517 23.161 98.0517 27.1279C98.0517 33.6748 98.0517 40.222 98.0517 46.769C97.2359 47.8193 96.3895 48.8288 95.3697 49.6854C95.3697 42.4144 95.3799 35.1537 95.3697 27.8828C95.3697 24.803 93.0853 22.5695 90.0157 22.5593C87.3846 22.5593 84.7637 22.5593 82.1326 22.5593C81.7349 22.5593 81.5411 22.5899 81.5513 23.0896C81.5716 24.8334 80.6334 25.7307 78.8794 25.7307C73.8313 25.7307 68.7935 25.7307 63.7455 25.7307C61.971 25.7307 61.0532 24.8232 61.0532 23.0284C61.0532 22.6919 61.0023 22.5593 60.625 22.5593C57.8307 22.5797 55.0261 22.539 52.2319 22.5797C49.6518 22.6205 47.3368 24.813 47.2756 27.3624C47.194 30.5849 47.2552 33.8076 47.245 37.0199C47.245 37.3156 47.3266 37.4277 47.6427 37.4277C48.8257 37.4073 50.0189 37.4075 51.2018 37.3973C51.7321 37.4075 52.2625 37.4073 52.7928 37.4481C54.0778 37.5297 55.0262 38.5802 54.9956 39.8651C54.965 41.1296 53.9452 42.129 52.6704 42.1596C52.1809 42.1596 51.7016 42.1698 51.2121 42.18C50.0291 42.18 48.8461 42.18 47.6632 42.1596C47.3776 42.1596 47.2552 42.2102 47.2552 42.5365C47.2756 43.7194 47.2756 44.9029 47.2552 46.0858C47.2552 46.4019 47.3674 46.4732 47.6632 46.4732C48.9277 46.4528 50.1922 46.4525 51.4568 46.4423C51.8545 46.4423 52.2625 46.4525 52.6602 46.4627C53.986 46.4933 54.9854 47.5132 54.9956 48.8185C54.9956 50.083 54.0063 51.1235 52.7316 51.1847C52.2624 51.205 51.8035 51.2048 51.3344 51.215C50.1107 51.215 48.8869 51.2152 47.6632 51.1847C47.3776 51.1847 47.245 51.2353 47.2552 51.5616C47.2756 52.7445 47.2756 53.9274 47.2552 55.1104C47.2552 55.4265 47.3674 55.5085 47.6632 55.4983C48.9277 55.4779 50.1923 55.4776 51.467 55.4674C51.8443 55.4674 52.2216 55.4878 52.599 55.4878C53.9757 55.498 54.9854 56.4668 54.9956 57.8027C55.016 59.1386 53.9758 60.1789 52.5889 60.1993C52.1708 60.1993 51.7525 60.2195 51.3242 60.2297C50.182 60.2297 49.0399 60.2398 47.8977 60.1888C47.3674 60.1684 47.2349 60.3113 47.2349 60.8416C47.2553 65.2164 47.245 69.6013 47.245 73.9762C47.245 76.0463 47.245 78.1267 47.245 80.1969C47.245 80.4722 47.194 80.7376 47.6325 80.7172C48.8155 80.6866 49.9986 80.6863 51.1816 80.6863C51.6609 80.6863 52.1503 80.6866 52.6296 80.7172C53.9961 80.7988 54.9854 81.8286 54.9752 83.1237C54.9548 84.429 53.9452 85.4183 52.5787 85.4591C52.1198 85.4693 51.6507 85.4897 51.1918 85.4999C49.9884 85.4897 48.7952 85.4792 47.5918 85.4486C47.3063 85.4486 47.2349 85.5609 47.2349 85.826C47.2451 87.009 47.2451 88.1921 47.2349 89.3649C47.2349 89.6912 47.3674 89.7418 47.6427 89.7418C48.8665 89.7214 50.0904 89.7216 51.3141 89.7114C51.773 89.7114 52.2421 89.7112 52.7011 89.7418C53.986 89.7928 54.9956 90.8636 54.9752 92.1384C54.9548 93.4437 53.9656 94.4329 52.6398 94.4533C52.2421 94.4533 51.8444 94.4635 51.4365 94.4737C50.1719 94.4737 48.9073 94.4739 47.6427 94.4433C47.2756 94.4433 47.2349 94.596 47.2349 94.9019C47.2451 96.0441 47.2451 97.1863 47.2349 98.3182C47.2349 98.6242 47.2858 98.7671 47.6427 98.7569C48.8665 98.7263 50.0904 98.7363 51.3141 98.7261C51.7832 98.7261 52.2422 98.7263 52.7113 98.7569C53.986 98.8283 54.9752 99.8683 54.9752 101.123C54.9752 102.428 53.9656 103.438 52.6398 103.478C52.2421 103.489 51.8342 103.499 51.4365 103.499C50.2331 103.499 49.0195 103.498 47.8162 103.468C47.3266 103.448 47.2247 103.601 47.2247 104.07C47.2451 106.782 47.2349 109.495 47.2349 112.208C47.2349 115.277 49.4989 117.561 52.5583 117.561C65.0611 117.561 77.5537 117.561 90.0565 117.561C90.5256 117.561 90.9845 117.511 91.4434 117.388C93.8604 116.776 95.3799 114.696 95.3799 111.994C95.3799 96.442 95.3799 80.9005 95.3799 65.3489C95.3799 65.1144 95.3594 64.8802 95.3594 64.6558C96.1651 63.5646 97.0625 62.5446 98.0415 61.6064H98.0007ZM45.8174 81.2271C43.6554 81.2271 41.4933 81.2271 39.3415 81.2271C38.1483 81.2271 37.2101 82.0425 37.1795 83.0929C37.1489 84.1432 38.1177 85.0204 39.3415 85.0204C43.6655 85.0204 47.9793 85.0204 52.3033 85.0204C52.8234 85.0204 53.3129 84.8881 53.7209 84.5618C54.3939 84.0213 54.5979 83.2766 54.3327 82.5322C54.0472 81.7368 53.3333 81.2271 52.4257 81.2271C50.2229 81.2271 48.0202 81.2271 45.8174 81.2271ZM45.8174 59.7198C48.0405 59.7198 50.2636 59.7198 52.497 59.7198C53.476 59.7198 54.2919 58.9961 54.4449 58.0477C54.5775 57.2829 54.0166 56.3955 53.2007 56.1202C52.803 55.9876 52.3849 55.916 51.9566 55.916C47.8672 55.916 43.7778 55.916 39.6883 55.916C39.26 55.916 38.8419 55.9874 38.4442 56.1097C37.6182 56.3851 37.0674 57.2724 37.1897 58.0372C37.3529 58.9856 38.1688 59.7098 39.1376 59.7098C41.3608 59.72 43.584 59.7098 45.8174 59.7098V59.7198ZM45.8174 90.2517C43.6146 90.2517 41.4118 90.2517 39.2091 90.2517C38.4136 90.2517 37.8221 90.6191 37.4244 91.2819C37.0675 91.8734 37.0878 92.5057 37.4549 93.0869C37.9648 93.9027 38.8113 94.0452 39.6781 94.0554C43.7675 94.0554 47.857 94.0554 51.9464 94.0554C52.3747 94.0554 52.7928 93.9841 53.1905 93.8617C54.0166 93.5966 54.5673 92.6995 54.4449 91.9347C54.2817 90.9863 53.476 90.2621 52.497 90.2621C50.2738 90.2519 48.0507 90.2621 45.8174 90.2621V90.2517ZM45.8174 37.9784C43.6146 37.9784 41.4118 37.9784 39.2091 37.9784C37.8629 37.9784 37.2815 38.7838 37.1999 39.8138C37.1184 40.8744 38.0464 41.6701 39.2396 41.6701C43.6043 41.6701 47.9692 41.6495 52.3237 41.6801C53.7617 41.6903 54.4347 40.742 54.4245 39.8038C54.4041 38.8453 53.7514 37.9476 52.3542 37.9679C50.1719 37.9985 47.9895 37.9679 45.8072 37.9679L45.8174 37.9784ZM45.8378 47.0134C43.6146 47.0134 41.3914 47.0134 39.158 47.0134C37.9037 47.0134 37.2407 47.7684 37.2102 48.8289C37.1796 49.8487 37.8832 50.6845 39.1172 50.6947C43.5635 50.7253 48.0202 50.7151 52.4665 50.6947C53.0274 50.6947 53.5577 50.5215 53.935 50.0728C54.4449 49.4507 54.5979 48.7776 54.2001 48.0128C53.8228 47.2888 53.2211 47.0032 52.4359 47.0134C50.2331 47.0134 48.0304 47.0134 45.8276 47.0134H45.8378ZM45.8174 102.968C48.0202 102.968 50.2229 102.968 52.4257 102.968C53.5883 102.968 54.4347 102.204 54.4551 101.143C54.4653 100.144 53.5577 99.2872 52.4257 99.2872C48.0201 99.2872 43.6146 99.2872 39.2091 99.2872C38.0975 99.2872 37.2102 99.9805 37.2204 101.143C37.2204 102.193 37.8935 102.978 39.2091 102.978C41.4118 102.978 43.6146 102.978 45.8174 102.978V102.968Z" fill="#CBAC53"/>
<path d="M95.3391 49.7259C96.359 48.8693 97.2156 47.8599 98.0212 46.8095C98.9595 46.0447 99.6938 45.0758 100.52 44.1988C102.315 42.3122 104.099 40.4154 105.853 38.488C106.312 37.9883 106.516 38.4165 106.761 38.6409C108.678 40.4357 110.585 42.2407 112.503 44.0355C113.308 44.8003 113.298 44.8004 112.513 45.6264C107.75 50.6539 103.079 55.7629 98.4903 60.9434C98.3067 61.1473 98.164 61.3818 98.0008 61.6061C97.0218 62.5443 96.1244 63.5643 95.3187 64.6555C95.176 64.7779 95.0231 64.8897 94.9007 65.0324C92.9631 67.2759 91.0356 69.5298 89.1082 71.7835C83.7236 78.0754 78.4716 84.4695 73.342 90.9654C72.9749 91.4345 72.7913 91.4139 72.4037 91.0162C68.8854 87.4266 65.3569 83.8679 61.8284 80.2986C58.667 77.1068 55.5056 73.9148 52.3239 70.7433C51.9873 70.4067 51.9261 70.2231 52.3034 69.8559C54.3532 67.8674 56.3928 65.8588 58.4121 63.8294C58.7486 63.4929 58.922 63.5745 59.2177 63.8703C63.297 68.0003 67.3762 72.1199 71.4554 76.2499C72.1489 76.9434 72.1284 76.9538 72.7607 76.1787C76.1056 72.0792 79.5118 68.0308 82.9587 64.0027C86.6096 59.7401 90.2911 55.518 94.0338 51.3268C94.4927 50.8169 95.0842 50.3987 95.3494 49.7154L95.3391 49.7259Z" fill="#CBAC53"/>
<path d="M95.3391 49.7261C95.074 50.3991 94.4826 50.8173 94.0237 51.3374C90.281 55.5185 86.5994 59.7502 82.9485 64.0129C79.5117 68.0308 76.1056 72.0894 72.7504 76.1889C72.1181 76.9639 72.1386 76.9642 71.4452 76.2606C67.3659 72.1305 63.2765 68.0105 59.2075 63.8804C58.922 63.5847 58.7486 63.503 58.4018 63.8396C56.3826 65.8689 54.3532 67.878 52.2932 69.8666C51.9159 70.2337 51.9771 70.4174 52.3136 70.7539C55.4954 73.9254 58.6568 77.1169 61.8181 80.3088C65.3467 83.878 68.8854 87.4475 72.3935 91.0269C72.7912 91.4246 72.9647 91.4447 73.3318 90.9756C78.4614 84.4796 83.7236 78.0861 89.0979 71.7941C91.0254 69.5404 92.9528 67.2968 94.8905 65.0431C95.0128 64.9003 95.1657 64.788 95.3085 64.6656C95.3085 64.9002 95.3289 65.1349 95.3289 65.3593C95.3289 80.9108 95.3289 96.4519 95.3289 112.003C95.3289 114.706 93.8094 116.786 91.3925 117.398C90.9438 117.51 90.4747 117.571 90.0056 117.571C77.5028 117.571 65.0101 117.571 52.5073 117.571C49.4479 117.571 47.184 115.287 47.184 112.218C47.184 109.505 47.1942 106.792 47.1738 104.08C47.1738 103.611 47.2757 103.458 47.7652 103.478C48.9686 103.519 50.1822 103.509 51.3856 103.509C51.4162 103.753 51.5793 103.896 51.7731 103.968C53.9759 104.855 56.1276 103.59 56.3214 101.377C56.4438 100.021 55.8116 98.9808 54.6184 98.3689C53.4558 97.7673 52.2932 97.8696 51.253 98.7364C50.0292 98.7364 48.8055 98.7362 47.5817 98.7668C47.2248 98.7668 47.1738 98.6345 47.1738 98.3286C47.184 97.1864 47.184 96.0442 47.1738 94.9123C47.1738 94.6165 47.2146 94.4532 47.5817 94.4532C48.8463 94.4837 50.1108 94.4738 51.3754 94.484C51.3958 94.6778 51.5284 94.7694 51.6813 94.851C52.7725 95.4221 54.2411 95.3201 55.1283 94.5552C56.1787 93.6476 56.5763 92.5056 56.1888 91.1494C55.5769 89.0384 52.8031 88.2429 51.253 89.7317C50.0292 89.7317 48.8055 89.7417 47.5817 89.7621C47.2962 89.7621 47.1636 89.7115 47.1738 89.3852C47.1942 88.2022 47.184 87.0191 47.1738 85.8463C47.1738 85.5812 47.2451 85.4689 47.5307 85.4689C48.734 85.4893 49.9272 85.4998 51.1306 85.5202C51.9465 86.3666 52.9765 86.3462 53.9555 86.0709C55.3016 85.6936 56.0359 84.694 56.1277 83.2765C56.2093 82.063 55.6789 81.1044 54.6693 80.4517C53.4353 79.6665 52.079 79.7891 51.1306 80.6967C49.9476 80.6967 48.7647 80.6965 47.5817 80.7271C47.133 80.7373 47.1942 80.4826 47.1942 80.2072C47.1942 78.1371 47.1942 76.0566 47.1942 73.9865C47.1942 69.6117 47.2044 65.2268 47.184 60.852C47.184 60.3217 47.3166 60.1788 47.8469 60.1992C48.9891 60.2502 50.1312 60.2298 51.2734 60.24C51.2938 60.2808 51.3141 60.3217 51.3447 60.3421C52.4257 61.2089 54.1084 61.2089 55.169 60.3421C56.3418 59.3733 56.6886 57.8538 56.0359 56.5179C55.4037 55.2432 53.8433 54.427 52.5482 54.8145C52.1402 54.9369 51.5895 54.9472 51.406 55.4877C50.1414 55.4877 48.8769 55.488 47.6021 55.5186C47.3064 55.5186 47.1942 55.4366 47.1942 55.1307C47.2044 53.9477 47.2146 52.7648 47.1942 51.5819C47.1942 51.2556 47.3268 51.2045 47.6021 51.2045C48.8259 51.2249 50.0496 51.2251 51.2734 51.2353C52.8235 52.51 54.6183 51.9694 55.5872 50.8579C56.6681 49.624 56.5764 48.2474 55.8829 47.1562C55.0365 45.8407 53.415 45.3612 52.028 45.8915C51.7527 45.9935 51.4672 46.1057 51.406 46.4626C50.1414 46.4626 48.8769 46.4629 47.6123 46.4935C47.3166 46.4935 47.2044 46.4217 47.2044 46.1056C47.2146 44.9227 47.2248 43.7397 47.2044 42.5568C47.2044 42.2305 47.3268 42.1799 47.6123 42.1799C48.7953 42.2003 49.9783 42.2003 51.1612 42.2003C51.3244 42.5062 51.6303 42.6284 51.9159 42.7405C53.6292 43.4034 55.5769 42.4859 56.0562 40.7115C56.5457 38.8861 55.628 37.2135 53.7107 36.7648C52.8031 36.5507 51.8649 36.6627 51.1612 37.4276C49.9783 37.4276 48.7851 37.4274 47.6021 37.4579C47.286 37.4579 47.2044 37.3561 47.2044 37.0501C47.2044 33.8277 47.1534 30.6055 47.235 27.3932C47.2962 24.8335 49.6111 22.6411 52.1912 22.6105C54.9855 22.5697 57.79 22.6105 60.5842 22.5901C60.9615 22.5901 61.0125 22.7124 61.0125 23.0591C61.0125 24.8539 61.9303 25.7614 63.7048 25.7614C68.7528 25.7614 73.7907 25.7614 78.8388 25.7614C80.5928 25.7614 81.531 24.8642 81.5106 23.1204C81.5106 22.6309 81.6941 22.5901 82.0919 22.5901C84.723 22.6003 87.3438 22.5901 89.9749 22.5901C93.0446 22.5901 95.3289 24.8333 95.3289 27.913C95.3391 35.184 95.3289 42.4447 95.3289 49.7156L95.3391 49.7261Z" fill="#DBEFFB"/>
<path d="M45.8174 81.2271C48.0202 81.2271 50.2229 81.2271 52.4257 81.2271C53.3333 81.2271 54.0574 81.7367 54.3327 82.5321C54.5979 83.2868 54.3939 84.0212 53.7209 84.5617C53.313 84.8881 52.8234 85.0203 52.3033 85.0203C47.9794 85.0203 43.6655 85.0203 39.3415 85.0203C38.1076 85.0203 37.149 84.1432 37.1795 83.0928C37.2101 82.0425 38.1484 81.2271 39.3415 81.2271C41.5035 81.2271 43.6656 81.2271 45.8174 81.2271Z" fill="#CBAC53"/>
<path d="M45.8174 59.7195C43.5942 59.7195 41.371 59.7195 39.1376 59.7195C38.1586 59.7195 37.3529 58.9958 37.1898 58.0475C37.0572 57.2928 37.6182 56.3953 38.4442 56.12C38.842 55.9874 39.2601 55.9161 39.6884 55.9263C43.7778 55.9263 47.8672 55.9263 51.9567 55.9263C52.385 55.9263 52.8031 55.9973 53.2008 56.1299C54.0268 56.4052 54.5775 57.2926 54.4449 58.0574C54.2817 59.0058 53.4659 59.73 52.4971 59.73C50.2739 59.7402 48.0508 59.73 45.8174 59.73V59.7195Z" fill="#CBAC53"/>
<path d="M45.8175 90.2517C48.0406 90.2517 50.2637 90.2517 52.4971 90.2517C53.4761 90.2517 54.292 90.986 54.445 91.9242C54.5775 92.6891 54.0167 93.5764 53.1906 93.8517C52.7929 93.9843 52.3748 94.0454 51.9465 94.0454C47.8571 94.0454 43.7676 94.0454 39.6782 94.0454C38.8114 94.0454 37.9751 93.8923 37.455 93.0764C37.0879 92.4952 37.0676 91.8629 37.4245 91.2714C37.8222 90.6086 38.4137 90.2417 39.2091 90.2417C41.4119 90.2417 43.6147 90.2417 45.8175 90.2417V90.2517Z" fill="#CBAC53"/>
<path d="M45.8175 37.9781C47.9998 37.9781 50.1821 37.9985 52.3645 37.9781C53.7617 37.9577 54.4144 38.8549 54.4348 39.8135C54.4552 40.7517 53.772 41.7004 52.334 41.6902C47.9693 41.6596 43.6146 41.6798 39.2499 41.6798C38.0465 41.6798 37.1185 40.8743 37.2102 39.824C37.2918 38.8042 37.8731 37.9881 39.2192 37.9881C41.422 37.9881 43.6249 37.9881 45.8277 37.9881L45.8175 37.9781Z" fill="#CBAC53"/>
<path d="M45.8378 47.0134C48.0406 47.0134 50.2433 47.0134 52.4461 47.0134C53.2314 47.0134 53.833 47.2989 54.2104 48.0128C54.6081 48.7674 54.4551 49.4507 53.9452 50.0727C53.5781 50.5316 53.0375 50.6947 52.4766 50.6947C48.0303 50.6947 43.5738 50.7151 39.1274 50.6947C37.8934 50.6947 37.1898 49.8487 37.2204 48.8289C37.251 47.7683 37.9139 47.0134 39.1682 47.0134C41.3914 47.0134 43.6145 47.0134 45.8479 47.0134H45.8378Z" fill="#CBAC53"/>
<path d="M45.8174 102.968C43.6146 102.968 41.4119 102.968 39.2091 102.968C37.8935 102.968 37.2306 102.183 37.2204 101.133C37.2102 99.9602 38.0975 99.2766 39.2091 99.2766C43.6146 99.2766 48.0202 99.2766 52.4257 99.2766C53.5475 99.2766 54.4653 100.134 54.4551 101.133C54.4347 102.193 53.5883 102.958 52.4257 102.958C50.2229 102.958 48.0202 102.958 45.8174 102.958V102.968Z" fill="#CBAC53"/>
<path d="M51.2938 98.7462C52.334 97.8895 53.4965 97.7877 54.6591 98.3792C55.8522 98.991 56.4744 100.042 56.3622 101.388C56.1684 103.601 54.0065 104.865 51.8139 103.977C51.6099 103.896 51.457 103.753 51.4264 103.519C51.8241 103.519 52.2319 103.509 52.6297 103.498C53.9554 103.468 54.9549 102.448 54.9651 101.143C54.9651 99.8782 53.9759 98.8382 52.7011 98.777C52.232 98.7566 51.7731 98.7563 51.304 98.7462H51.2938Z" fill="#FEFEFE"/>
<path d="M51.4161 46.4626C51.4773 46.1159 51.7629 46.0037 52.0382 45.8915C53.4353 45.351 55.0569 45.8305 55.8931 47.1562C56.5968 48.2474 56.6783 49.624 55.5973 50.8579C54.6285 51.9694 52.8439 52.51 51.2836 51.2353C51.7527 51.2353 52.2116 51.235 52.6807 51.2045C53.9555 51.1331 54.9446 50.0931 54.9446 48.8388C54.9446 47.5335 53.935 46.5238 52.6092 46.483C52.2115 46.4728 51.8037 46.4626 51.4059 46.4626H51.4161Z" fill="#FEFEFE"/>
<path d="M51.2836 89.7318C52.8337 88.2531 55.6075 89.0385 56.2194 91.1494C56.6069 92.5057 56.2193 93.6477 55.1588 94.5553C54.2715 95.3201 52.803 95.4221 51.7118 94.8511C51.5588 94.7695 51.4161 94.6778 51.4059 94.4841C51.8037 94.4841 52.2013 94.4637 52.6092 94.4637C53.935 94.4433 54.9242 93.4643 54.9446 92.1488C54.965 90.874 53.9554 89.8134 52.6705 89.7522C52.2116 89.7318 51.7425 89.7315 51.2836 89.7213V89.7318Z" fill="#FEFEFE"/>
<path d="M51.4161 55.488C51.5997 54.9475 52.1504 54.9372 52.5583 54.8148C53.8433 54.4375 55.4137 55.2435 56.046 56.5182C56.6987 57.8541 56.3519 59.3736 55.1792 60.3424C54.1186 61.2092 52.4359 61.2092 51.3549 60.3424C51.3243 60.322 51.3142 60.2709 51.2836 60.2403C51.7017 60.2403 52.1198 60.2196 52.5481 60.2094C53.9249 60.189 54.9752 59.1493 54.9548 57.8134C54.9344 56.4775 53.9351 55.5189 52.5583 55.4985C52.181 55.4985 51.8037 55.4882 51.4264 55.478L51.4161 55.488Z" fill="#FEFEFE"/>
<path d="M51.1612 37.4275C51.8649 36.6627 52.8133 36.5506 53.7107 36.7648C55.628 37.2237 56.5457 38.886 56.0562 40.7114C55.5769 42.4858 53.6189 43.4033 51.9159 42.7405C51.6201 42.6283 51.3244 42.5062 51.1612 42.2002C51.6507 42.2002 52.13 42.19 52.6195 42.1798C53.9044 42.1594 54.9141 41.16 54.9446 39.8853C54.9752 38.6106 54.0268 37.5601 52.7418 37.4683C52.2115 37.4377 51.6813 37.4379 51.151 37.4175L51.1612 37.4275Z" fill="#FEFEFE"/>
<path d="M51.1612 80.7069C52.1096 79.7993 53.4659 79.6771 54.6999 80.4624C55.7197 81.1048 56.2399 82.0634 56.1583 83.2872C56.0665 84.6944 55.3322 85.6936 53.9861 86.0811C53.0071 86.3564 51.9771 86.3768 51.1612 85.5304C51.6201 85.5202 52.0892 85.4997 52.5481 85.4895C53.9249 85.4487 54.9344 84.4697 54.9446 83.1542C54.965 81.8591 53.9656 80.8293 52.599 80.7477C52.1197 80.7171 51.6303 80.7275 51.151 80.7173L51.1612 80.7069Z" fill="#FEFEFE"/>
<path d="M154.467 101.173H144.126V80.5844H134.836V101.173H124.495V52.8772C124.495 49.6649 125.627 46.9219 127.912 44.6274C130.186 42.3431 132.929 41.1907 136.141 41.1907H142.842C146.054 41.1907 148.787 42.3329 151.071 44.6274C153.346 46.9117 154.488 49.6649 154.488 52.8772V101.173H154.467ZM144.126 70.1929V53.163C144.126 52.7143 143.974 52.3366 143.668 52.0103C143.362 51.6942 142.984 51.5313 142.536 51.5313H136.427C135.978 51.5313 135.601 51.6942 135.295 52.0103C134.989 52.3264 134.836 52.7143 134.836 53.163V70.1929H144.126Z" fill="#DBEFFB"/>
<path d="M178.239 101.173H171.58C168.347 101.173 165.583 100.032 163.309 97.7372C161.035 95.4529 159.893 92.6992 159.893 89.4869V52.8672C159.893 49.6549 161.025 46.9114 163.309 44.6169C165.583 42.3326 168.337 41.1807 171.58 41.1807H178.239C181.451 41.1807 184.195 42.3224 186.489 44.6169C188.774 46.9012 189.926 49.6549 189.926 52.8672V62.2797H179.585V53.1525C179.585 52.7038 179.422 52.3266 179.106 52.0003C178.79 51.6842 178.402 51.5208 177.953 51.5208H171.886C171.437 51.5208 171.06 51.6842 170.733 52.0003C170.417 52.3164 170.254 52.7038 170.254 53.1525V89.1911C170.254 89.6398 170.417 90.0175 170.733 90.3438C171.049 90.66 171.437 90.8229 171.886 90.8229H177.953C178.402 90.8229 178.779 90.66 179.106 90.3438C179.422 90.0277 179.585 89.6398 179.585 89.1911V76.3424H175.863V66.0018H189.926V89.4869C189.926 92.6992 188.784 95.4427 186.489 97.7372C184.205 100.021 181.451 101.173 178.239 101.173Z" fill="#DBEFFB"/>
<path d="M225.374 101.173H195.362V41.1907H225.374V51.5313H205.702V66.0118H219.602V76.3524H205.702V90.8334H225.374V101.173Z" fill="#DBEFFB"/>
<path d="M260.823 101.173H251.573L241.151 71.8351V101.173H230.81V41.1907H240.1L250.482 70.5295V41.1907H260.823V101.173Z" fill="#DBEFFB"/>
<path d="M284.635 101.173H266.258V41.1907H284.635C287.848 41.1907 290.581 42.3329 292.865 44.6274C295.139 46.9117 296.281 49.6649 296.281 52.8772V89.4974C296.281 92.7097 295.139 95.4527 292.865 97.7472C290.591 100.031 287.848 101.184 284.635 101.184V101.173ZM284.35 90.8334C284.798 90.8334 285.176 90.67 285.482 90.3539C285.788 90.0377 285.941 89.6503 285.941 89.2016V53.163C285.941 52.7143 285.788 52.3366 285.482 52.0103C285.176 51.6942 284.798 51.5313 284.35 51.5313H276.65V90.8334H284.35Z" fill="#DBEFFB"/>
<path d="M331.689 101.173H321.348V80.5844H312.058V101.173H301.717V52.8772C301.717 49.6649 302.849 46.9219 305.133 44.6274C307.407 42.3431 310.151 41.1907 313.363 41.1907H320.063C323.276 41.1907 326.009 42.3329 328.293 44.6274C330.567 46.9117 331.709 49.6649 331.709 52.8772V101.173H331.689ZM321.348 70.1929V53.163C321.348 52.7143 321.195 52.3366 320.889 52.0103C320.583 51.6942 320.206 51.5313 319.757 51.5313H313.649C313.2 51.5313 312.823 51.6942 312.517 52.0103C312.211 52.3264 312.058 52.7143 312.058 53.163V70.1929H321.348Z" fill="#DBEFFB"/>
<path d="M370.992 101.173H360.652V77.1889L356.929 91.4657H351.198L347.476 77.1889V101.173H337.135V41.1907H346.639L354.043 67.8068L361.447 41.1907H370.992V101.173Z" fill="#DBEFFB"/>
<path d="M406.4 101.173H396.059V80.5844H386.769V101.173H376.428V52.8772C376.428 49.6649 377.56 46.9219 379.844 44.6274C382.118 42.3431 384.862 41.1907 388.074 41.1907H394.774C397.987 41.1907 400.72 42.3329 403.004 44.6274C405.278 46.9117 406.42 49.6649 406.42 52.8772V101.173H406.4ZM396.059 70.1929V53.163C396.059 52.7143 395.906 52.3366 395.6 52.0103C395.294 51.6942 394.917 51.5313 394.468 51.5313H388.36C387.911 51.5313 387.533 51.6942 387.228 52.0103C386.922 52.3264 386.769 52.7143 386.769 53.163V70.1929H396.059Z" fill="#DBEFFB"/>
<path d="M432.017 101.173H421.677V51.5313H411.835V41.1907H441.848V51.5313H432.007V101.173H432.017Z" fill="#DBEFFB"/>
<path d="M477.307 101.173H447.294V41.1907H477.307V51.5313H457.635V66.0118H471.535V76.3524H457.635V90.8334H477.307V101.173Z" fill="#DBEFFB"/>
</svg>
