<svg width="195" height="195" viewBox="0 0 195 195" fill="none" xmlns="http://www.w3.org/2000/svg">
<path d="M97.7103 0.949814C123.253 0.949814 148.785 0.980301 174.328 0.929457C180.327 0.919288 185.645 6.70524 185.635 12.2879C185.625 40.0893 185.594 67.8908 185.655 95.6922C185.665 100.97 180.5 106.583 175.131 107.04C169.864 107.488 164.607 107.102 159.35 107.315C158.465 107.346 158.13 107.112 158.13 106.166C158.13 104.681 158.323 103.186 157.886 101.692C157.57 100.614 158.547 100.848 159.126 100.848C163.539 100.838 167.962 100.726 172.375 100.878C176.341 101.011 179.503 98.5802 179.493 93.7602C179.473 78.1918 179.493 62.6131 179.493 47.0447C179.493 36.1641 179.493 25.2735 179.493 14.3929C179.493 12.9591 179.351 11.5354 178.619 10.2541C177.287 7.92549 175.182 7.08161 172.619 7.08161C122.673 7.08161 72.727 7.08161 22.7808 7.08161C18.5814 7.08161 15.9782 9.63398 15.9376 13.9455C15.8867 21.3789 15.9275 28.8122 15.9275 36.2558C15.9275 55.4341 15.9681 74.6224 15.8969 93.8007C15.8766 98.458 19.2118 101.021 22.9028 100.889C27.3667 100.716 31.8407 100.858 36.3147 100.838C37.3112 100.838 37.8603 100.939 37.4129 102.19C36.9858 103.42 37.2502 104.753 37.2807 106.034C37.301 106.99 37.0671 107.346 36.0299 107.335C31.4543 107.285 26.8684 107.407 22.2927 107.285C16.1104 107.122 11.4941 103.654 9.9282 97.5837C9.79601 97.0753 9.78583 96.5261 9.78583 95.9973C9.78583 67.9823 9.78583 39.957 9.78583 11.9421C9.78583 6.50178 15.3478 0.949814 20.7878 0.949814C46.432 0.949814 72.0762 0.949814 97.7306 0.949814H97.7103Z" fill="#B08B36"/>
<path d="M86.1999 58.6372C83.6782 59.0033 81.6648 58.6677 79.682 59.1253C72.9914 60.6608 67.7141 63.9248 65.2737 70.7074C64.6331 72.4768 64.4704 74.348 64.4399 76.1783C64.3586 82.7982 64.4399 89.4283 64.3789 96.0583C64.3687 97.36 64.7552 97.6445 65.9957 97.6445C87.1659 97.6038 108.336 97.6038 129.506 97.6445C130.706 97.6445 131.052 97.3598 131.031 96.1294C130.97 89.6112 130.97 83.093 131.011 76.5748C131.052 68.5008 126.476 62.6945 119.206 60.1116C116.684 59.2168 114.112 58.6473 111.407 58.81C110.848 58.8405 110.288 58.7694 109.688 58.5965C112.088 56.9797 114.386 55.3222 116.369 53.2681C116.847 52.7698 117.528 52.9122 118.057 53.0444C125.317 54.8951 131.164 58.7286 134.875 65.379C136.36 68.0432 137.153 70.9413 137.143 74.0428C137.132 81.4253 137.163 88.8079 137.112 96.1802C137.112 97.2886 137.376 97.6343 138.525 97.6445C141.464 97.675 144.413 97.3598 147.351 97.9089C150.27 98.458 152.324 100.766 152.324 103.776C152.324 105.769 152.171 107.773 152.354 109.756C152.72 113.528 149.324 116.376 145.755 116.365C139.563 116.345 133.37 116.365 127.168 116.365C101.473 116.365 75.7775 116.335 50.0824 116.396C46.2185 116.396 42.5376 113.681 43.0155 109.42C43.2189 107.559 43.0461 105.658 43.0461 103.766C43.0461 100.746 45.1 98.458 48.0386 97.9089C50.8755 97.3801 53.7125 97.614 56.5393 97.6547C58.034 97.675 58.2882 97.197 58.2678 95.8344C58.2068 88.5129 58.1763 81.1814 58.2678 73.8598C58.3288 68.9483 60.2709 64.7384 63.5349 61.098C67.2057 57.0101 71.8119 54.5695 77.0282 53.1256C77.6586 52.9527 78.4314 52.7392 78.8788 53.1765C80.9531 55.2 83.2104 56.9899 86.1795 58.627L86.1999 58.6372ZM97.6899 104.081H53.1125C49.2181 104.081 49.2995 104.082 49.1774 108.017C49.1266 109.603 49.5944 109.939 51.1298 109.939C81.4412 109.888 111.753 109.908 142.074 109.888C143.396 109.888 145.125 110.488 145.948 109.613C146.772 108.759 146.05 107.041 146.223 105.719C146.396 104.346 145.867 104.041 144.545 104.051C128.927 104.102 113.318 104.081 97.7001 104.081H97.6899Z" fill="#B08B36"/>
<path d="M97.7103 158.393C101.422 158.393 105.143 158.301 108.855 158.413C117.813 158.667 125.195 163.782 127.645 172.741C127.94 173.809 128.062 174.948 128.073 176.046C128.113 181.323 128.093 186.601 128.093 191.879C128.093 194.045 127.157 194.94 124.961 194.929C122.856 194.929 121.961 194.035 121.961 191.909C121.961 187.71 122.083 183.5 121.921 179.31C121.799 176.158 121.504 172.995 119.511 170.25C117.01 166.802 113.573 165.023 109.495 164.921C101.635 164.718 93.765 164.667 85.9152 164.921C79.8346 165.125 74.3539 169.375 73.7438 176.483C73.3066 181.639 73.6218 186.784 73.4795 191.929C73.4185 194.034 72.5643 194.919 70.4392 194.919C68.253 194.919 67.3277 194.014 67.3277 191.838C67.3277 186.51 67.226 181.171 67.3582 175.843C67.4599 171.917 68.9343 168.409 71.4662 165.409C75.6555 160.447 81.1565 158.372 87.5523 158.372C90.9485 158.372 94.3344 158.372 97.7306 158.372L97.7103 158.393Z" fill="#B08B36"/>
<path d="M117.426 35.8896C118.026 46.2821 108.306 56.3287 96.5104 55.6576C87.6336 55.1492 77.018 47.1769 77.9433 34.3134C78.6754 24.1242 86.7388 15.908 97.7611 15.908C108.56 15.908 117.803 24.5005 117.426 35.8896ZM97.6899 49.1192C105.387 49.414 111.295 42.9569 111.203 35.6659C111.102 28.263 105.235 22.3551 97.7204 22.3449C90.2265 22.3348 84.2679 28.2631 84.1967 35.7982C84.1357 42.8757 90.0129 49.414 97.6899 49.1192Z" fill="#B08B36"/>
<path d="M82.5088 137.272C82.2343 128.873 88.8436 122.091 97.6391 121.999C105.57 121.918 113.369 127.947 112.932 138.279C112.627 145.6 106.252 153.095 96.7138 152.627C89.3723 152.261 82.1224 145.773 82.5088 137.282V137.272ZM97.7408 146.109C102.855 146.323 106.546 142.174 106.668 137.282C106.791 132.564 102.561 128.344 97.7103 128.375C92.6262 128.405 88.7521 132.422 88.7419 137.201C88.7419 141.92 92.3618 146.353 97.7408 146.109Z" fill="#B08B36"/>
<path d="M40.2396 126.066C41.8665 126.107 43.4731 127.825 43.3917 129.442C43.3104 131.151 41.7445 132.595 40.0362 132.523C38.0229 132.452 36.8841 131.191 36.9248 129.107C36.9654 127.236 38.2975 126.016 40.2294 126.056L40.2396 126.066Z" fill="#B08B36"/>
<path d="M156.218 148.397C156.218 146.373 157.469 145.122 159.482 145.143C161.038 145.163 162.655 146.76 162.685 148.316C162.716 150.004 161.221 151.559 159.533 151.6C157.54 151.651 156.228 150.38 156.218 148.387V148.397Z" fill="#B08B36"/>
<path d="M39.8329 148.041C39.8329 150.054 38.572 151.305 36.5587 151.275C34.8505 151.254 33.3659 149.739 33.3659 148.031C33.3659 146.414 35.0538 144.777 36.6706 144.807C38.5822 144.848 39.8329 146.129 39.8329 148.031V148.041Z" fill="#B08B36"/>
<path d="M22.3842 140.231C22.3944 142.265 21.1742 143.516 19.1609 143.526C17.5645 143.526 16.0189 141.95 15.9376 140.221C15.8562 138.604 17.4222 137.099 19.2118 137.059C21.1031 137.018 22.3639 138.289 22.3842 140.231Z" fill="#B08B36"/>
<path d="M152.669 137.059C154.815 136.937 155.71 138.737 155.852 140.252C156.005 141.828 154.215 143.546 152.619 143.526C150.707 143.506 149.436 142.163 149.426 140.16C149.416 138.279 150.697 137.059 152.669 137.059Z" fill="#B08B36"/>
<path d="M176.585 129.249C176.595 131.242 175.385 132.534 173.504 132.534C171.816 132.534 170.169 130.978 170.128 129.361C170.088 127.775 171.796 126.056 173.392 126.076C175.324 126.097 176.575 127.348 176.585 129.259V129.249Z" fill="#B08B36"/>
<path d="M21.347 126.717C23.3298 126.707 24.6314 127.897 24.6415 129.758C24.6517 131.619 23.2587 133.124 21.4691 133.185C19.8422 133.236 18.1644 131.497 18.1746 129.778C18.1949 128.029 19.5269 126.738 21.3369 126.727L21.347 126.717Z" fill="#B08B36"/>
<path d="M176.29 136.408C178.242 136.408 179.513 137.659 179.483 139.54C179.463 141.381 177.958 142.906 176.209 142.865C174.623 142.835 173.046 141.177 173.016 139.52C172.985 137.72 174.378 136.398 176.28 136.408H176.29Z" fill="#B08B36"/>
<path d="M29.1664 148.366C29.1664 150.349 27.9361 151.631 26.0448 151.61C24.367 151.59 22.7198 150.004 22.7096 148.397C22.6995 146.872 24.3264 145.183 25.8618 145.153C27.8649 145.102 29.1664 146.373 29.1766 148.377L29.1664 148.366Z" fill="#B08B36"/>
<path d="M54.6377 164.209C56.6409 164.189 57.9322 165.399 57.9424 167.27C57.9424 168.958 56.4172 170.606 54.7801 170.667C53.1939 170.728 51.4653 169.029 51.4754 167.423C51.4856 165.47 52.7058 164.23 54.6377 164.209Z" fill="#B08B36"/>
<path d="M151.693 130.012C151.673 127.937 152.883 126.717 154.927 126.717C156.625 126.717 158.12 128.131 158.14 129.768C158.16 131.476 156.493 133.174 154.774 133.185C153.015 133.185 151.703 131.842 151.683 130.012H151.693Z" fill="#B08B36"/>
<path d="M27.8751 161.637C27.8751 159.654 29.1156 158.372 31.0069 158.393C32.8066 158.413 34.342 159.796 34.3115 161.545C34.2708 163.264 33.0202 164.759 30.9154 164.85C29.6647 164.901 27.5701 163.386 27.8751 161.637Z" fill="#B08B36"/>
<path d="M166.884 148.112C166.874 146.119 168.186 144.797 170.159 144.818C171.684 144.838 173.321 146.475 173.351 148.011C173.382 149.607 171.745 151.244 170.077 151.275C168.176 151.315 166.905 150.044 166.895 148.102L166.884 148.112Z" fill="#B08B36"/>
<path d="M27.8751 125.273C27.8751 123.199 28.9936 121.979 30.9154 121.958C32.6338 121.938 34.3217 123.483 34.3319 125.08C34.3319 126.992 33.0405 128.314 31.1492 128.324C29.1258 128.324 27.8751 127.165 27.8751 125.273Z" fill="#B08B36"/>
<path d="M164.332 128.324C162.38 128.324 161.028 127.053 161.068 125.212C161.099 123.524 162.685 121.897 164.302 121.907C166.091 121.907 167.545 123.453 167.525 125.314C167.505 127.124 166.234 128.324 164.332 128.334V128.324Z" fill="#B08B36"/>
<path d="M42.9342 136.408C44.9678 136.408 46.2185 137.588 46.2083 139.499C46.1982 141.248 44.6323 142.906 43.0257 142.875C41.0836 142.835 39.8329 141.564 39.8329 139.642C39.8329 137.649 41.0226 136.418 42.9342 136.418V136.408Z" fill="#B08B36"/>
<path d="M151.622 164.86C149.812 164.85 148.46 163.538 148.46 161.789C148.46 160.122 150.015 158.454 151.622 158.403C153.279 158.352 154.927 160.051 154.917 161.81C154.917 163.681 153.615 164.881 151.612 164.86H151.622Z" fill="#B08B36"/>
<path d="M167.525 161.687C167.515 163.508 166.203 164.86 164.444 164.86C162.705 164.86 161.099 163.264 161.068 161.504C161.038 159.928 162.705 158.393 164.444 158.393C166.325 158.393 167.535 159.684 167.515 161.687H167.525Z" fill="#B08B36"/>
<path d="M137.183 182.32C135.2 182.33 133.909 181.12 133.909 179.249C133.909 177.561 135.444 175.833 137.071 175.883C138.79 175.934 140.285 177.164 140.356 179.269C140.417 181.018 139.013 182.31 137.183 182.32Z" fill="#B08B36"/>
<path d="M43.768 164.86C41.7344 164.87 40.4836 163.63 40.4836 161.616C40.4836 160.061 42.0699 158.484 43.6663 158.444C45.283 158.393 46.9709 160.06 46.9506 161.687C46.9201 163.619 45.6796 164.86 43.768 164.87V164.86Z" fill="#B08B36"/>
<path d="M143.935 167.494C143.915 169.05 142.298 170.626 140.722 170.636C139.095 170.656 137.437 168.979 137.478 167.362C137.529 165.348 138.79 164.179 140.854 164.209C142.745 164.24 143.965 165.542 143.945 167.484L143.935 167.494Z" fill="#B08B36"/>
<path d="M6.86755 179.066C6.86755 181.059 5.64737 182.33 3.75608 182.31C1.69194 182.289 0.847966 181.323 0.695443 179.279C0.573425 177.602 1.61057 175.965 3.67472 175.873C5.59651 175.792 6.86756 177.154 6.87773 179.066H6.86755Z" fill="#B08B36"/>
<path d="M58.2475 182.32C56.4071 182.32 55.0852 181.079 55.0343 179.31C54.9835 177.439 56.3359 176.178 58.4102 176.178C60.2201 176.178 61.4911 177.429 61.5013 179.229C61.5013 181.11 60.2405 182.33 58.2577 182.32H58.2475Z" fill="#B08B36"/>
<path d="M58.3187 194.929C56.3359 194.919 55.0343 193.699 55.0343 191.858C55.0343 190.048 56.4172 188.767 58.3491 188.787C60.2201 188.808 61.4809 190.028 61.5013 191.818C61.5216 193.699 60.2506 194.939 58.3187 194.929Z" fill="#B08B36"/>
<path d="M136.919 194.929C135.139 194.929 133.889 193.628 133.909 191.807C133.929 189.947 135.231 188.767 137.234 188.787C139.034 188.808 140.386 190.13 140.376 191.879C140.366 193.77 139.034 194.94 136.919 194.929Z" fill="#B08B36"/>
<path d="M10.4163 167.331C10.4163 169.304 9.17573 170.656 7.35562 170.667C5.49484 170.677 4.26452 169.284 4.27469 167.179C4.28486 165.348 5.4847 164.199 7.38616 164.209C9.18593 164.22 10.4264 165.501 10.4163 167.321V167.331Z" fill="#B08B36"/>
<path d="M21.408 161.749C21.408 163.721 20.259 164.881 18.2966 164.86C16.507 164.84 15.2868 163.579 15.2665 161.708C15.2461 159.786 16.568 158.383 18.3576 158.413C20.1777 158.444 21.3979 159.776 21.408 161.759V161.749Z" fill="#B08B36"/>
<path d="M173.992 161.759C173.992 159.776 175.192 158.454 177.032 158.413C178.863 158.373 180.144 159.786 180.134 161.85C180.134 163.63 178.842 164.881 177.012 164.86C175.222 164.84 173.982 163.569 173.992 161.759Z" fill="#B08B36"/>
<path d="M191.126 167.331C191.126 169.304 189.895 170.646 188.075 170.667C186.275 170.687 184.974 169.284 184.984 167.362C185.004 165.491 186.224 164.22 188.014 164.209C189.977 164.199 191.126 165.348 191.126 167.321V167.331Z" fill="#B08B36"/>
<path d="M194.684 179.473C194.654 181.405 193.657 182.34 191.675 182.32C189.671 182.3 188.502 181.029 188.543 178.924C188.583 176.982 189.58 176.147 191.807 176.178C193.891 176.208 194.725 177.154 194.684 179.473Z" fill="#B08B36"/>
<path d="M0.715912 191.899C0.715912 189.733 1.59035 188.787 3.61382 188.787C5.6678 188.787 6.86765 189.997 6.85748 192.062C6.84731 193.994 5.87116 194.919 3.86803 194.929C1.63102 194.94 0.72608 194.075 0.715912 191.899Z" fill="#B08B36"/>
<path d="M194.684 191.787C194.684 194.014 193.82 194.919 191.644 194.919C189.519 194.919 188.543 194.004 188.543 192.011C188.543 190.028 189.722 188.808 191.675 188.777C193.729 188.757 194.674 189.703 194.684 191.787Z" fill="#B08B36"/>
</svg>
