<svg width="106" height="182" viewBox="0 0 106 182" fill="none" xmlns="http://www.w3.org/2000/svg">
<path d="M0.593694 90.4841C0.593694 64.6227 0.62432 38.7715 0.563132 12.9101C0.563132 8.8412 1.78689 5.45556 4.94828 2.84495C6.84512 1.2847 9.00708 0.73396 11.4852 0.744157C39.1321 0.795146 66.7892 0.77479 94.4361 0.784988C100.086 0.784988 104.604 4.96601 105.154 10.6869C105.266 11.7985 105.205 12.9203 105.205 14.042C105.205 64.9695 105.052 115.907 105.358 166.834C105.409 175.013 99.6984 181.468 90.4487 181.438C65.0352 181.336 39.6217 181.458 14.2081 181.366C6.41682 181.336 0.369332 175.452 0.461114 167.722C0.756857 141.983 0.57334 116.233 0.57334 90.4841H0.593694ZM99.3822 90.6269C99.3822 64.8777 99.3822 39.1284 99.3822 13.3894C99.3822 8.04575 97.4956 6.15916 92.111 6.10817C91.1014 6.10817 90.0917 6.10817 89.0923 6.10817C80.2098 6.10817 80.1181 6.07755 76.9057 14.2357C75.8859 16.8259 74.4072 17.805 71.6333 17.7744C61.3333 17.6521 50.9925 17.1319 40.7536 17.9171C32.9113 18.5188 28.1386 16.4385 26.6497 8.4537C26.303 6.6283 25.171 5.97556 23.2741 6.06734C20.0312 6.2203 16.778 6.08778 13.535 6.11838C8.36461 6.16937 6.43722 8.09671 6.43722 13.2262C6.43722 64.7247 6.43722 116.213 6.43722 167.711C6.43722 172.821 8.385 174.819 13.535 174.83C39.7338 174.85 65.9327 174.85 92.1315 174.83C97.4956 174.83 99.3925 172.882 99.3925 167.548C99.3925 141.911 99.3925 116.274 99.3925 90.6473L99.3822 90.6269Z" fill="#0E3E63"/>
<path d="M26.6804 154.404C24.396 154.852 23.6413 153.771 23.8453 151.62C23.9473 150.508 23.7637 149.376 23.8861 148.264C24.1819 145.511 23.4068 143.777 20.7757 142.105C14.8711 138.352 15.177 129.399 21.2142 125.738C23.3864 124.422 23.9983 123.066 23.9167 120.71C23.7433 115.683 23.8147 110.645 23.8963 105.607C23.9167 103.986 23.4476 103.068 21.9587 102.181C14.7181 97.8876 14.7487 88.8729 21.9893 84.4981C23.3048 83.7027 23.9167 82.9481 23.8963 81.3878C23.8147 75.7995 23.8147 70.2009 23.8963 64.6125C23.9167 63.0523 23.3252 62.2875 21.9994 61.4921C14.7486 57.1275 14.7078 48.0922 21.9485 43.8091C23.4272 42.9321 24.0085 42.0348 23.8861 40.4031C23.7739 38.8429 23.9269 37.2725 23.8453 35.7122C23.7433 33.6217 23.8249 32.1838 26.7313 32.1838C29.6582 32.1838 29.7092 33.6727 29.6072 35.7326C29.546 36.9564 29.6888 38.2005 29.5766 39.4242C29.3726 41.6167 30.0152 42.9424 32.1159 44.2273C38.6019 48.184 38.4693 57.2906 31.9527 61.1861C30.1579 62.2569 29.495 63.3072 29.546 65.3569C29.6888 70.6088 29.648 75.8709 29.5664 81.1227C29.546 82.7543 30.0151 83.6517 31.504 84.5491C38.7446 88.8628 38.714 97.9183 31.4326 102.222C29.9131 103.119 29.5358 104.078 29.5562 105.669C29.6276 110.92 29.6378 116.182 29.5562 121.444C29.5256 123.28 29.9743 124.381 31.7182 125.422C38.6019 129.521 38.6325 138.709 31.7794 142.737C30.0457 143.757 29.4135 144.787 29.5562 146.674C29.6888 148.346 29.4746 150.039 29.6072 151.701C29.7908 153.955 28.8525 154.811 26.66 154.414L26.6804 154.404Z" fill="#0E3E63"/>
<path d="M70.0323 142.798C65.4432 142.798 60.8541 142.676 56.2752 142.849C53.8888 142.941 52.3999 142.227 51.0843 140.167C47.1683 134.028 47.1377 134.13 51.2067 127.9C52.3693 126.125 53.5828 125.309 55.7856 125.33C65.4024 125.452 75.0192 125.442 84.6359 125.33C87.0121 125.299 88.0726 125.829 87.8993 128.471C87.6647 132.142 87.6443 135.864 87.8993 139.535C88.093 142.35 86.9407 142.911 84.4524 142.829C79.6491 142.676 74.8356 142.788 70.0221 142.788L70.0323 142.798Z" fill="#0E3E63"/>
<path d="M70.0425 43.8906C75.0803 43.8906 80.1182 43.962 85.1458 43.86C87.1446 43.8192 87.9503 44.4005 87.8789 46.5012C87.7463 50.6313 87.7565 54.7818 87.8789 58.9221C87.9401 60.9004 87.1242 61.3695 85.3089 61.3593C75.2435 61.2982 65.1678 61.2676 55.1023 61.3798C53.0015 61.4002 52.1857 60.2376 51.2271 58.8099C47.1071 52.6607 47.1784 52.7219 51.1251 46.5522C52.4304 44.5025 53.8785 43.7376 56.2853 43.8396C60.8642 44.0334 65.4534 43.8906 70.0425 43.8906Z" fill="#0E3E63"/>
<path d="M70.1649 102.13C65.4636 102.13 60.7623 102.007 56.0712 102.181C53.7766 102.262 52.4304 101.487 51.1863 99.56C47.1581 93.3292 47.1479 93.4311 51.115 87.2819C52.3387 85.3851 53.644 84.5795 55.9692 84.6101C65.5961 84.7427 75.2129 84.7325 84.8398 84.6203C87.165 84.5897 87.9911 85.2526 87.8789 87.6287C87.7055 91.4223 87.6647 95.2463 87.8789 99.0399C88.0319 101.671 86.9916 102.252 84.5849 102.171C79.7816 102.007 74.958 102.12 70.1547 102.12L70.1649 102.13Z" fill="#0E3E63"/>
</svg>
