<svg width="116" height="188" viewBox="0 0 116 188" fill="none" xmlns="http://www.w3.org/2000/svg">
<path d="M98.2794 174.849C94.7917 178.571 91.4468 182.151 88.0916 185.71C85.8072 188.137 83.8288 188.137 81.5648 185.72C78.2097 182.151 74.8647 178.571 71.377 174.839C70.5203 175.747 69.7148 176.583 68.9091 177.439C66.278 180.244 63.6572 183.069 61.0261 185.873C58.9457 188.086 56.8449 188.065 54.7849 185.853C51.3787 182.212 47.9624 178.592 44.4542 174.849C42.5268 176.889 40.6912 178.847 38.8453 180.805C37.183 182.569 35.5309 184.353 33.8584 186.107C32.0738 187.974 29.871 187.963 28.1067 186.087C24.619 182.385 21.1517 178.684 17.5416 174.839C15.7161 176.766 13.9416 178.653 12.1672 180.54C10.4437 182.375 8.73037 184.221 6.9967 186.046C5.66075 187.443 4.14127 187.862 2.68295 187.209C1.07165 186.495 0.449642 185.179 0.45984 183.456C0.480236 176.817 0.45984 170.168 0.45984 163.53C0.45984 110.889 0.45984 58.2382 0.45984 5.59758C0.45984 2.03857 1.61216 0.87603 5.12029 0.87603C40.2628 0.87603 75.4053 0.87603 110.548 0.87603C111.884 0.87603 113.322 0.753697 114.229 1.93663C114.78 2.65047 115.147 3.60908 115.3 4.50648C115.484 5.57724 115.341 6.69897 115.341 7.80032C115.341 53.1088 115.341 98.4275 115.331 143.736C115.331 144.552 115.3 145.398 115.066 146.163C114.576 147.744 112.863 148.743 111.302 148.508C109.559 148.243 108.294 146.907 108.182 145.184C108.151 144.633 108.172 144.083 108.172 143.532C108.172 98.9985 108.172 54.4651 108.172 9.93161V8.18784H7.73105V174.706C9.31175 173.024 10.7395 171.515 12.1672 170.005C13.0136 169.108 13.8498 168.19 14.7065 167.293C16.4605 165.467 18.5818 165.437 20.3358 167.283C23.589 170.699 26.8116 174.146 30.0342 177.592C30.3401 177.919 30.6053 178.296 30.9316 178.704C34.4805 174.91 37.8663 171.311 41.2418 167.711C43.4038 165.396 45.4841 165.386 47.6665 167.701C51.0013 171.229 54.3157 174.778 57.6402 178.316C57.7014 178.378 57.7932 178.408 57.9869 178.531C59.3127 177.144 60.6589 175.726 61.9948 174.309C64.1262 172.035 66.2474 169.75 68.3686 167.476C70.296 165.416 72.4581 165.426 74.4059 167.517C77.5673 170.892 80.7286 174.268 83.8798 177.654C84.1552 177.949 84.3694 178.306 84.7059 178.745C87.3268 175.961 89.7641 173.371 92.2014 170.77C93.3028 169.597 94.3634 168.404 95.4954 167.262C97.2291 165.508 99.4727 165.549 101.166 167.354C103.409 169.74 105.653 172.147 108.1 174.768C108.131 174.074 108.161 173.687 108.161 173.299C108.161 168.761 108.161 164.223 108.161 159.695C108.161 157.227 109.518 155.739 111.721 155.729C113.893 155.729 115.331 157.268 115.331 159.665C115.341 167.588 115.331 175.522 115.331 183.446C115.331 185.394 114.535 186.75 113.005 187.26C111.364 187.81 109.987 187.352 108.794 186.067C105.653 182.671 102.471 179.306 99.3095 175.93C99.0035 175.604 98.6874 175.278 98.2692 174.819L98.2794 174.849Z" fill="#0E3E63"/>
<path d="M57.8646 105.423C44.9946 105.423 32.1247 105.443 19.265 105.382C18.1942 105.382 16.9806 105.025 16.0934 104.444C14.8492 103.628 14.5637 102.231 15.0023 100.773C15.4306 99.3657 16.379 98.3867 17.8169 98.3357C21.835 98.193 25.8632 98.1725 29.8812 98.1725C42.7817 98.1521 55.672 98.1623 68.5725 98.1725C77.9955 98.1725 87.4186 98.1726 96.8416 98.193C98.9628 98.193 100.289 99.0801 100.788 100.722C101.278 102.292 100.778 103.995 99.3401 104.781C98.5446 105.219 97.5249 105.413 96.5969 105.413C83.6861 105.454 70.7651 105.444 57.8544 105.444L57.8646 105.423Z" fill="#0E3E63"/>
<path d="M58.0482 112.582C70.8773 112.582 83.6962 112.582 96.5254 112.582C97.2086 112.582 97.9225 112.582 98.5548 112.776C100.156 113.275 101.176 114.917 100.972 116.498C100.747 118.231 99.4319 119.547 97.739 119.731C97.4229 119.761 97.0965 119.741 96.7803 119.741C70.8569 119.741 44.9334 119.741 19.01 119.741C15.9812 119.741 14.1761 117.569 15.0225 114.989C15.5222 113.469 16.8072 112.582 18.6225 112.572C22.6099 112.551 26.5871 112.572 30.5746 112.572C39.7324 112.572 48.8903 112.572 58.0584 112.572L58.0482 112.582Z" fill="#0E3E63"/>
<path d="M54.2035 56.5862C51.2767 55.801 49.0128 54.1184 47.8604 51.2426C47.4321 50.1616 47.2178 48.9481 47.1668 47.7856C47.0853 45.8684 48.5742 44.3184 50.3997 44.1757C52.3271 44.0329 53.9791 45.3483 54.2953 47.2859C54.6216 49.2744 54.9275 49.5396 56.9672 49.56C57.7932 49.5702 58.6193 49.5905 59.4453 49.56C60.9954 49.4886 61.8725 48.4077 61.3524 46.9698C61.0464 46.1234 60.4142 45.2769 59.7105 44.7058C56.9162 42.4929 53.9894 40.433 51.1849 38.2201C46.9833 34.8956 45.882 28.9096 48.6456 24.8203C49.8898 22.9745 51.3277 21.9752 54.3157 20.935C54.3157 20.2212 54.2851 19.4564 54.3157 18.6916C54.4177 16.7234 55.9576 15.265 57.8952 15.265C59.8328 15.265 61.383 16.7234 61.4849 18.6814C61.5257 19.4054 61.4849 20.1396 61.4849 20.4762C63.2492 21.6795 64.9115 22.5565 66.2577 23.7904C67.9914 25.3609 68.6848 27.5227 68.644 29.8682C68.6134 31.7956 67.2061 33.264 65.3194 33.417C63.5246 33.57 61.8317 32.2035 61.5054 30.3577C61.1382 28.2774 60.8322 28.0224 58.7518 28.0122C57.9258 28.0122 57.0998 27.9816 56.2738 28.0122C54.795 28.0937 53.9486 29.1442 54.4483 30.5311C54.7542 31.3775 55.3356 32.2647 56.0392 32.8154C58.9049 35.0895 61.903 37.2004 64.7789 39.4643C69.5312 43.2273 70.0208 50.437 65.7376 54.3121C64.5852 55.3523 63.0555 55.9846 61.5462 56.9024C61.1077 61.0325 60.3326 62.2562 57.9667 62.2868C55.4681 62.3174 54.6828 61.1344 54.2035 56.5658V56.5862Z" fill="#0E3E63"/>
<path d="M57.8034 76.6453C51.9905 76.6453 46.1675 76.6453 40.3546 76.6453C37.8968 76.6453 36.3875 75.2788 36.3875 73.0965C36.3875 70.9346 37.9376 69.4762 40.3342 69.466C52.0619 69.4558 63.7897 69.4558 75.5072 69.466C77.812 69.466 79.3824 70.9243 79.4028 73.0046C79.4232 75.2277 77.9344 76.6351 75.5276 76.6351C69.623 76.6351 63.7081 76.6351 57.8034 76.6351V76.6453Z" fill="#0E3E63"/>
<path d="M39.9365 83.8245C43.5058 83.8245 47.0853 83.8041 50.6546 83.8347C52.3883 83.8551 53.6733 84.8544 54.1526 86.4147C54.5911 87.8627 54.1322 89.4842 52.8472 90.3001C52.1844 90.7182 51.3175 91.0036 50.5425 91.0138C43.4854 91.075 36.4386 91.0853 29.3815 91.0445C27.0564 91.0343 25.5267 89.4537 25.5674 87.3937C25.6184 85.293 27.2603 83.8449 29.6262 83.8347C33.063 83.8245 36.4997 83.8347 39.9365 83.8347V83.8245Z" fill="#0E3E63"/>
<path d="M75.7622 83.8244C79.3315 83.8244 82.9008 83.804 86.4599 83.8244C88.3771 83.8448 89.7334 84.9563 90.1108 86.7103C90.4473 88.2909 89.7233 89.8919 88.2446 90.5956C87.6837 90.8607 87.0209 91.0137 86.3988 91.0137C79.3621 91.0443 72.3254 91.0341 65.299 91.0341C63.6979 91.0341 62.4436 90.3611 61.7807 88.8722C61.1994 87.5567 61.2707 86.129 62.3415 85.1806C63.1268 84.4872 64.2996 83.9161 65.3296 83.8651C68.7969 83.7019 72.2744 83.804 75.752 83.804L75.7622 83.8244Z" fill="#0E3E63"/>
<path d="M43.5771 130.469C43.5771 128.46 45.1374 126.92 47.1464 126.93C49.1146 126.93 50.7158 128.521 50.7463 130.489C50.7667 132.498 49.1045 134.13 47.0649 134.089C45.0558 134.048 43.5771 132.508 43.5873 130.469H43.5771Z" fill="#0E3E63"/>
<path d="M75.8846 126.91C77.8426 126.93 79.403 128.531 79.3928 130.53C79.3928 132.559 77.8732 134.079 75.8437 134.089C73.8143 134.089 72.1725 132.427 72.2235 130.418C72.2745 128.47 73.9265 126.889 75.8846 126.91Z" fill="#0E3E63"/>
<path d="M18.4185 134.089C16.4401 134.089 14.8288 132.508 14.8084 130.54C14.788 128.592 16.389 126.951 18.3471 126.92C20.3561 126.889 22.0591 128.562 22.0489 130.55C22.0388 132.488 20.3867 134.099 18.4185 134.099V134.089Z" fill="#0E3E63"/>
<path d="M65.0746 130.469C65.095 132.457 63.5448 134.058 61.5664 134.089C59.5675 134.12 57.9563 132.59 57.9053 130.622C57.8543 128.572 59.4554 126.92 61.4848 126.92C63.4734 126.92 65.0542 128.48 65.0746 130.469Z" fill="#0E3E63"/>
<path d="M32.7468 134.089C30.748 134.058 29.1775 132.488 29.1877 130.509C29.1979 128.46 30.8398 126.859 32.8794 126.92C34.8374 126.981 36.4283 128.643 36.3876 130.581C36.3468 132.539 34.715 134.109 32.7468 134.089Z" fill="#0E3E63"/>
<path d="M90.2332 134.089C88.2547 134.109 86.6333 132.549 86.5823 130.591C86.5211 128.603 88.2141 126.91 90.2231 126.92C92.2117 126.93 93.772 128.521 93.7618 130.51C93.7516 132.539 92.2422 134.079 90.2332 134.099V134.089Z" fill="#0E3E63"/>
</svg>
