<svg width="190" height="211" viewBox="0 0 190 211" fill="none" xmlns="http://www.w3.org/2000/svg">
<path d="M94.0634 210.127C67.9972 210.127 41.931 210.127 15.8648 210.127C2.59711 210.127 -1.16597 205.221 0.761463 192.076C3.29058 174.761 5.30979 157.364 7.32901 139.976C8.9505 126.036 14.9164 118.163 28.3166 114.849C40.2687 111.892 51.3744 107.16 62.2251 101.541C68.1196 98.4922 68.1808 98.6044 62.8574 94.4846C44.6131 80.3607 37.4847 57.5074 44.6539 36.1125C51.6498 15.2378 71.1994 0.716038 93.013 0.195955C115.571 -0.344525 136.171 13.9631 143.697 35.3885C151.162 56.6508 144.248 80.1362 126.422 94.0459C120.548 98.6246 120.67 98.4001 127.37 102.041C137.966 107.813 149.102 111.933 160.789 114.931C173.425 118.163 179.605 126.23 181.298 139.232C183.796 158.394 185.387 177.677 188.936 196.706C190.251 203.783 184.337 210.004 175.933 210.075C159.443 210.208 142.943 210.116 126.452 210.116C115.663 210.116 104.863 210.116 94.0736 210.116L94.0634 210.127ZM110.921 177.943C122.149 167.459 129.777 154.753 134.55 140.191C135.855 136.213 135.967 132.807 133.04 129.524C129.084 125.088 127.89 120.855 134.223 117.256C136.457 115.981 137.007 114.339 134.081 112.962C130.46 111.27 126.871 109.506 122.496 107.405C122.23 131.931 119.416 155.151 110.034 177.116C109.146 177.575 108.861 178.187 109.524 179.054C109.993 178.677 110.462 178.309 110.931 177.932L110.921 177.943ZM139.73 53.2445C139.873 28.0358 119.875 7.63013 94.7977 7.37519C69.7105 7.12025 48.9881 27.4038 48.9167 52.276C48.8555 77.5868 68.6907 97.8494 93.8289 98.1349C118.916 98.4205 139.588 78.1986 139.73 53.255V53.2445ZM123.903 202.968C130.817 202.968 137.752 202.662 144.646 203.07C149.418 203.355 150.499 201.54 150.357 197.145C150.071 187.998 150.275 178.84 150.275 169.682C150.275 167.255 150.765 164.889 153.661 164.859C156.649 164.838 156.985 167.276 156.985 169.672C156.985 174.965 156.812 180.257 157.036 185.54C157.281 191.158 154.507 198.491 158.24 201.938C161.88 205.303 169.121 202.6 174.771 202.978C180.166 203.335 182.052 201.02 181.328 195.636C179.238 180.125 176.943 164.614 175.617 149.022C173.394 122.895 166.143 123.894 148.021 118.377C142.943 116.827 141.617 120.142 139.19 122.355C136.273 125.006 139.639 126.689 140.689 128.453C142.576 131.634 143.106 134.673 142.147 138.304C137.528 155.875 128.737 170.916 115.347 183.235C110.686 187.518 105.73 191.424 100.121 194.361C97.1738 195.911 97.7449 198.348 97.8775 200.673C98.0611 203.957 100.774 202.876 102.538 202.907C109.656 203.029 116.774 202.957 123.893 202.957L123.903 202.968ZM64.224 202.968C71.1382 202.968 78.0627 203.11 84.977 202.876C87.0064 202.804 90.2188 204.579 90.8001 200.592C91.2386 197.563 90.4227 195.493 87.4143 193.678C67.1916 181.471 54.0769 163.737 47.2442 141.169C45.6737 135.979 45.3168 131.298 49.0288 126.862C49.9569 125.761 51.8027 123.986 49.7733 122.773C47.3359 121.314 47.132 116.705 42.9406 117.898C37.087 119.581 31.1007 120.937 25.4305 123.119C19.5667 125.373 15.7118 130.024 14.8654 136.316C12.1629 156.466 9.76636 176.668 7.21685 196.839C6.68655 200.999 8.4814 202.978 12.632 202.957C17.3129 202.937 22.004 202.743 26.6645 203.029C30.4072 203.253 31.6412 201.927 31.5596 198.195C31.3454 189.252 31.4474 180.298 31.5188 171.344C31.5392 168.632 30.7947 164.818 35.0575 164.961C39.2081 165.104 38.3209 168.907 38.3413 171.599C38.4229 180.553 38.4841 189.507 38.3209 198.45C38.2597 201.846 39.3407 203.131 42.859 203.019C49.9773 202.794 57.0955 202.947 64.224 202.957V202.968ZM66.1106 107.405C62.3271 109.261 59.3493 110.923 56.2287 112.198C52.3024 113.809 51.2724 115.553 55.423 118.102C59.6348 120.692 60.3181 123.925 56.8916 127.566C52.3432 132.4 52.5778 137.58 55.1477 143.179C56.6672 146.493 57.6972 150.052 59.3595 153.284C63.8364 162.003 69.2414 170.06 77.257 176.352C69.017 154.294 66.4165 131.451 66.1106 107.385V107.405ZM103.996 171.661C102.018 163.564 99.9681 155.477 98.1019 147.359C97.5919 145.167 97.0311 143.525 94.3388 143.525C91.6567 143.525 91.0448 145.126 90.5451 147.339C89.1582 153.488 88.0568 159.77 85.9254 165.664C82.7538 174.434 88.1792 179.829 92.6561 185.754C93.2374 186.529 93.8391 187.304 95.1445 186.682C97.2554 185.672 104.078 174.292 103.996 171.671V171.661ZM115.714 100.674C101.029 106.436 87.5571 106.436 72.9331 100.684C78.1953 110.423 85.5685 115.165 94.3592 115.124C103.099 115.094 110.462 110.372 115.714 100.664V100.674ZM80.0615 160.688C81.2751 156.191 82.3357 153.325 82.7742 150.378C83.3555 146.472 86.0885 142.669 84.1407 138.661C83.3249 136.978 83.4064 133.225 80.5612 134.184C78.1239 135.01 74.7789 136.458 75.4928 140.629C76.5432 146.758 77.5732 152.887 80.0615 160.688ZM108.014 159.016L109.513 158.995C110.737 152.723 112.053 146.472 113.164 140.18C113.827 136.448 110.503 135.163 108.208 134.215C105.393 133.052 105.863 136.611 104.782 137.988C103.588 139.507 103.65 141.333 104.119 143.189C105.455 148.451 106.719 153.733 108.004 159.006L108.014 159.016ZM94.4102 136.683C99.1421 137.172 100.254 132.94 100.57 130.003C100.957 126.444 96.7659 124.241 94.1246 124.231C91.8301 124.231 87.6998 126.576 88.0364 129.789C88.3423 132.746 89.3519 136.938 94.4102 136.683ZM73.239 113.605C73.5246 119.408 73.7591 124.129 74.0548 130.044C78.5624 126.668 82.1113 123.997 86.4455 120.744C81.2955 119.092 77.9505 116.532 73.239 113.605ZM102.936 120.672C106.413 124.139 109.83 127.107 114.816 129.269V113.656C110.911 116.756 107.27 118.796 102.936 120.672Z" fill="#0E3E63"/>
<path d="M110.921 177.943C110.452 178.32 109.983 178.687 109.513 179.065C108.851 178.198 109.136 177.585 110.023 177.127C110.319 177.402 110.625 177.678 110.921 177.943Z" fill="#0E3E63"/>
<path d="M90.851 66.1144C90.851 64.1666 90.6776 62.7188 90.8816 61.3218C91.5546 56.8959 89.7088 54.9991 85.344 53.8263C74.5239 50.8996 69.6289 45.6068 69.8838 38.3256C70.1286 31.126 76.2372 24.9975 86.1395 22.3563C88.8318 21.6425 91.2997 21.4075 91.0346 17.614C90.9122 15.8803 92.3603 14.6569 94.2571 14.6059C96.1743 14.5549 97.6429 15.8094 97.5613 17.5124C97.3574 21.6425 100.223 21.7749 103.007 22.4683C107.219 23.5289 110.972 25.5379 114.092 28.6278C115.653 30.1677 116.734 31.8808 114.969 33.9408C113.225 35.9803 111.461 35.2868 109.646 33.8795C106.454 31.4015 102.681 27.5975 99.0094 29.5963C96.0316 31.2279 98.163 36.3373 97.8366 39.8861C97.6531 41.9053 97.9794 43.9752 97.7755 45.9943C97.4899 48.9312 98.6423 50.369 101.508 51.1848C104.802 52.123 108.126 53.3265 111.104 54.999C120.446 60.2508 121.353 70.673 113.266 77.791C110.462 80.269 107.209 81.9717 103.609 82.8385C100.376 83.6136 97.133 83.8893 97.4593 88.5802C97.5511 89.9569 96.0112 91.0376 94.4305 91.0784C92.5337 91.1192 91.004 89.8956 91.0855 88.2028C91.2895 84.1951 88.6992 83.777 85.8132 83.1244C81.3566 82.1046 77.5017 79.8406 74.2588 76.6079C72.831 75.1904 72.0866 73.5692 73.5347 71.754C75.1562 69.7145 76.9612 69.9898 78.7969 71.5399C81.9481 74.1811 85.9355 77.8621 89.413 76.2509C92.9314 74.6192 89.9944 69.2349 90.851 66.1144ZM97.7959 67.1038H97.8163C97.8163 68.7252 97.9794 70.3566 97.7857 71.9577C97.184 77.0055 99.5499 77.3727 103.354 75.6289C104.455 75.1191 105.628 74.7215 106.627 74.0485C109.952 71.7948 113.154 69.031 111.115 64.6256C108.953 59.9346 103.782 57.8341 99.5193 58.242C95.899 58.5785 98.5403 63.6464 97.7959 66.5018C97.7449 66.6955 97.7959 66.91 97.7959 67.1038ZM90.7898 38.5093C90.7898 37.2856 90.7898 36.0722 90.7898 34.8485C90.7388 28.2098 89.9128 27.6792 83.9265 30.4428C83.1923 30.7793 82.4376 31.1157 81.7747 31.5746C78.6439 33.7671 75.6763 36.4086 77.3794 40.5897C79.3782 45.4846 84.4772 47.5853 88.8216 47.2182C93.0028 46.8613 89.872 41.8747 90.7796 39.1213C90.8408 38.9377 90.7796 38.7133 90.7796 38.5093H90.7898Z" fill="#0E3E63"/>
</svg>
