<svg width="195" height="195" viewBox="0 0 195 195" fill="none" xmlns="http://www.w3.org/2000/svg">
<path d="M130.335 103.468H131.561C144.652 103.468 157.743 103.468 170.835 103.468C171.427 103.468 172.019 103.498 172.571 103.212C173.765 102.589 173.949 101.18 172.908 100.332C171.866 99.4847 170.753 98.7185 169.711 97.8606C169.201 97.4419 168.67 97.3807 168.067 97.3909C166.025 97.4011 163.983 97.3909 161.45 97.3909C164.575 94.9602 166.515 92.162 167.444 88.567C172.234 92.1926 176.87 95.6955 181.506 99.1986C183.905 101.016 186.428 100.046 187.163 97.0435C187.449 95.8793 186.724 95.2667 185.917 94.6539C180.199 90.3338 174.511 85.9831 168.782 81.6835C167.22 80.509 165.933 79.2424 165.024 77.4143C163.349 74.0338 160.48 71.8891 156.865 70.7657C155.486 70.3367 155.272 69.6729 156.099 68.4473C157.141 66.895 159.03 66.6703 160.756 67.9674C164.626 70.878 168.486 73.8195 172.346 76.7506C178.095 81.1217 183.834 85.4929 189.573 89.8641C193.954 93.2037 194.556 97.728 191.135 102.079C190.369 103.049 190.002 103.529 191.523 104.182C193.678 105.102 194.75 106.991 194.842 109.33C194.924 111.485 194.914 113.64 194.842 115.795C194.74 119.053 192.177 121.555 188.899 121.636C186.479 121.698 184.048 121.749 181.628 121.616C180.097 121.534 179.647 121.933 179.657 123.536C179.729 138.672 179.698 153.817 179.698 168.953C179.698 176.337 179.698 183.711 179.698 191.095C179.698 192.463 179.177 193.495 177.921 194.087C176.778 194.638 175.705 194.424 174.746 193.658C173.765 192.872 173.612 191.769 173.612 190.594C173.622 186.397 173.561 182.189 173.653 177.991C173.684 176.582 173.306 176.184 171.866 176.194C151.718 176.245 131.571 176.224 111.423 176.224C107.819 176.224 106.961 175.356 106.961 171.731C106.961 161.661 106.94 151.581 106.991 141.511C106.991 140.203 106.695 139.775 105.317 139.775C78.164 139.815 51.0214 139.815 23.8687 139.775C22.3268 139.775 22.143 140.347 22.143 141.654C22.1736 157.76 22.1634 173.875 22.1532 189.981C22.1532 190.727 22.1327 191.503 21.9591 192.218C21.6017 193.607 20.3151 194.465 18.9263 194.383C17.4864 194.301 16.2815 193.178 16.1181 191.728C16.0568 191.146 16.0874 190.543 16.0874 189.951C16.0874 167.911 16.0874 145.882 16.0874 123.842C16.0874 121.35 16.3836 121.677 13.9839 121.657C11.7169 121.636 9.46011 121.677 7.19312 121.657C3.46588 121.616 0.953815 119.063 0.92318 115.315C0.902757 113.374 0.882333 111.434 0.92318 109.493C0.994661 106.103 3.48629 103.58 6.86634 103.519C10.1953 103.457 13.5243 103.508 16.9759 103.314C13.8409 102.324 12.1662 99.8011 10.3996 97.3909C7.29524 93.1627 7.93857 87.6478 12.0539 84.4001C24.0934 74.8816 36.1942 65.4345 48.2541 55.9365C49.3672 55.0582 50.5211 54.6804 51.8384 55.3034C53.1659 55.9366 53.5335 57.1008 53.605 58.4999C53.8194 63.1162 55.6575 65.7921 59.4052 67.0892C60.0281 67.3037 60.651 67.4466 61.3046 67.2934C63.3979 66.793 65.3586 67.2627 67.2886 68.0594C81.6257 73.9318 95.9629 79.8144 110.3 85.6664C111.679 86.2282 112.853 86.9023 113.037 88.5159C113.21 90.1398 112.199 91.0385 110.954 91.8555C106.705 94.6539 105.358 98.2182 106.736 102.62C106.94 103.284 107.185 103.58 107.941 103.57C110.902 103.519 113.864 103.529 116.825 103.57C117.571 103.57 117.785 103.253 117.989 102.589C118.735 100.21 118.265 98.2386 116.304 96.676C115.886 96.339 115.467 95.9918 114.997 95.7263C113.721 95.0012 112.914 94.0205 113.088 92.4682C113.261 90.9056 114.354 90.2112 115.692 89.7107C120.369 87.9439 125.035 86.1464 129.712 84.3489C136.197 81.8672 142.671 79.3854 149.145 76.8934C152.331 75.6679 155.415 75.8518 157.876 78.2621C160.408 80.7438 162.012 83.818 161.256 87.5559C160.674 90.436 158.734 92.2026 156.038 93.2239C147.95 96.3082 139.863 99.4233 131.775 102.518C131.285 102.702 130.795 102.906 130.305 103.1C130.315 103.233 130.335 103.365 130.345 103.498L130.335 103.468ZM97.9541 121.636H92.9402C70.0968 121.636 47.2636 121.636 24.4201 121.636C21.8672 121.636 22.1634 121.207 22.143 123.985C22.1225 126.467 22.1225 128.939 22.143 131.42C22.1634 133.953 21.8264 133.739 24.5018 133.739C73.4156 133.739 122.319 133.739 171.233 133.739C171.498 133.739 171.774 133.708 172.04 133.739C173.214 133.892 173.653 133.463 173.622 132.217C173.541 129.419 173.612 126.61 173.592 123.812C173.581 121.259 173.806 121.626 171.478 121.626C146.97 121.626 122.462 121.626 97.9541 121.626V121.636ZM143.13 170.127C152.719 170.127 162.308 170.107 171.897 170.158C173.183 170.158 173.653 169.903 173.643 168.504C173.581 159.506 173.581 150.508 173.643 141.511C173.643 140.203 173.336 139.764 171.948 139.764C152.883 139.805 133.817 139.805 114.742 139.764C113.415 139.764 113.016 140.081 113.016 141.449C113.078 150.447 113.078 159.445 113.016 168.442C113.016 169.76 113.323 170.158 114.691 170.158C124.167 170.097 133.654 170.127 143.13 170.127ZM97.8112 115.539H185.07C188.756 115.539 188.776 115.539 188.756 111.842C188.736 109.319 189.134 109.524 186.417 109.524C127.925 109.524 69.433 109.524 10.9408 109.524C8.31981 109.524 7.00931 110.848 7.00931 113.497C7.00931 114.858 7.7105 115.543 9.1129 115.549C38.6858 115.549 68.2485 115.549 97.8214 115.549L97.8112 115.539ZM56.7808 94.3883C56.26 94.3883 55.7392 94.3883 55.2184 94.3883C49.8369 94.3883 44.4554 94.3679 39.0738 94.3986C36.8783 94.4088 35.8265 95.5117 35.7857 97.6871C35.7755 98.2284 35.7857 98.7595 35.7857 99.3008C35.7857 102.579 36.6945 103.468 40.0439 103.468C57.8122 103.468 75.5702 103.468 93.3385 103.468C93.849 103.468 94.3801 103.621 94.9111 103.314C94.6149 102.743 94.0329 102.722 93.5733 102.528C82.1363 97.8301 70.7095 93.0912 59.2418 88.475C55.7903 87.086 53.3906 84.931 52.6043 81.2135C52.4409 80.4373 52.1447 80.3455 51.532 80.8357C50.1943 81.9183 48.8259 82.9599 47.4678 84.0323C45.8033 85.3395 44.1388 86.6571 42.4743 87.9746C44.4656 88.3218 46.3241 88.3219 48.1826 88.3219C48.7238 88.3219 49.2344 88.2912 49.6225 88.8121C51.4708 91.3041 53.9726 92.9177 56.791 94.3883H56.7808ZM58.4351 79.2118C58.5985 80.948 59.3848 81.9795 60.8348 82.5617C64.9297 84.206 68.9939 85.9015 73.0786 87.5662C81.493 90.9977 89.9176 94.4189 98.3115 97.8913C99.4859 98.3713 100.16 98.7084 100.262 96.8904C100.405 94.5823 101.508 92.5296 103.04 90.824C103.989 89.7721 103.683 89.4555 102.549 89.0061C96.5551 86.6061 90.5916 84.1446 84.6177 81.7037C78.0517 79.0177 71.4651 76.3522 64.9093 73.6356C63.449 73.033 62.0194 72.8389 60.8655 74.044C59.4563 75.5147 58.9967 77.496 58.4249 79.2118H58.4351ZM19.5696 97.3602C20.5397 97.3602 21.3056 96.8802 22.0306 96.298C26.0438 93.132 30.0672 89.9762 34.0906 86.8204C40.3095 81.9386 46.5385 77.057 52.7574 72.165C53.3803 71.6748 54.2381 71.3069 52.9617 70.4695C50.9091 69.1214 49.6327 67.1097 48.8157 64.8424C48.4175 63.7496 48.1214 63.6881 47.2227 64.3928C36.8681 72.5632 26.4931 80.6928 16.1181 88.8326C15.4237 89.3738 14.8723 90.0071 14.6374 90.8854C14.0451 93.0811 17.272 97.3193 19.5594 97.35L19.5696 97.3602ZM155.415 85.9729C155.364 83.4299 153.393 81.7446 151.422 82.4901C141.976 86.0851 132.541 89.721 123.095 93.3261C122.36 93.6019 121.972 93.8368 122.615 94.6437C123.35 95.573 123.881 96.6453 124.116 97.83C124.29 98.6981 124.678 98.8003 125.474 98.4735C127.762 97.5339 130.08 96.6759 132.388 95.7874C139.464 93.0605 146.541 90.3337 153.608 87.6068C154.465 87.28 155.374 86.984 155.405 85.9729H155.415ZM29.6077 98.1466C26.9322 99.9747 24.8695 102.303 21.9591 103.376C24.3078 103.478 26.6054 103.488 28.9031 103.478C29.4953 103.478 30.2203 103.549 29.9651 102.6C29.5872 101.231 29.771 99.8318 29.6179 98.1466H29.6077Z" fill="#A3883E"/>
<path d="M162.543 0.429138C162.818 0.500629 163.4 0.612811 163.962 0.776218C173.173 3.38052 182.394 5.98497 191.605 8.59949C194.832 9.51865 195.588 10.9178 194.229 13.9511C190.124 23.1018 187.245 32.6815 184.12 42.1897C183.027 45.5191 181.638 48.7465 179.29 51.4325C177.36 53.6385 176.492 53.8325 173.796 52.7193C170.069 51.1772 166.331 49.6554 162.624 48.0622C161.685 47.6536 160.991 47.674 160.112 48.2664C157.263 50.1966 154.353 52.0452 151.443 53.9039C149.533 55.1295 148.338 54.9967 146.694 53.383C143.998 50.7481 142.528 47.337 141.282 43.9156C139.025 37.7266 136.156 31.8339 133.266 25.941C132.163 23.7044 132.715 22.1929 135.033 21.1001C141.364 18.1281 147.542 14.8498 154.006 12.1536C154.629 11.8982 154.69 11.3774 154.874 10.8872C156.038 7.86414 157.233 4.87179 159.193 2.24707C159.949 1.23599 160.807 0.337192 162.533 0.398469L162.543 0.429138ZM167.526 43.6603C169.977 44.6714 172.172 45.5599 174.337 46.4893C175.062 46.8059 175.409 46.5304 175.757 45.938C176.798 44.1099 177.697 42.2204 178.371 40.2289C181.23 31.7828 183.395 23.1019 187.234 15.003C187.694 14.0328 187.367 13.706 186.448 13.4506C179.198 11.4285 171.958 9.39609 164.728 7.32287C163.778 7.04712 163.268 7.22079 162.829 8.13995C161.665 10.5706 160.643 13.042 159.796 15.6054C159.479 16.545 159.551 17.3417 159.99 18.22C161.869 21.9783 163.482 25.8592 164.565 29.9137C165.412 33.0593 166.781 35.8066 169.119 38.1148C170.569 39.5446 170.355 41.4851 168.772 42.7515C168.445 43.017 168.088 43.262 167.536 43.6705L167.526 43.6603ZM149.839 47.6333C150.136 47.4699 150.37 47.3474 150.595 47.2146C154.261 44.8555 157.917 42.4757 161.593 40.1369C162.257 39.708 162.287 39.3404 161.859 38.7276C160.337 36.5319 159.449 34.0603 158.713 31.5172C157.59 27.6261 156.028 23.9188 154.271 20.283C153.802 19.3128 153.403 19.0371 152.352 19.5579C148.604 21.4371 144.815 23.2449 141.006 25.0015C140.047 25.4509 139.883 25.839 140.394 26.7888C142.763 31.262 144.734 35.9088 146.449 40.6782C147.195 42.7412 148.267 44.692 149.206 46.6836C149.36 47.0104 149.605 47.2861 149.85 47.6435L149.839 47.6333Z" fill="#A3893E"/>
<path d="M60.4162 23.1837C60.4775 26.6152 60.069 30.4756 59.6708 34.3361C59.344 37.5225 59.8648 40.5455 61.1719 43.4664C62.3973 46.2137 61.1923 48.103 58.1595 48.2869C49.8778 48.7771 41.6064 49.2775 33.3248 49.7984C29.189 50.0639 28.2496 49.4511 27.0957 45.4477C26.2991 42.6799 26.1358 39.8307 26.1051 36.9711C26.0983 35.7932 25.5333 35.446 24.41 35.9294C21.7856 37.0426 19.1714 38.1763 16.547 39.2793C14.4843 40.1474 13.4733 39.9226 11.9927 38.2273C9.73589 35.6434 8.60239 32.4672 7.71398 29.2603C5.95758 22.9793 3.72123 16.8822 1.28065 10.8361C0.392234 8.64035 1.20916 7.02682 3.49657 6.35276C9.99117 4.42252 16.5062 2.55345 23.011 0.63342C24.6449 0.153412 25.8396 0.63349 26.7995 1.9816C27.6777 3.21736 28.4947 4.49384 28.9848 5.92365C29.3116 6.87345 29.7711 7.23099 30.8025 7.28205C38.3897 7.65993 45.9668 8.1297 53.5438 8.53822C58.3535 8.79354 58.8845 9.2326 59.8546 14.0531C60.4366 16.9229 60.4469 19.8338 60.4264 23.1939L60.4162 23.1837ZM43.5772 43.0478C43.5772 43.0478 43.5772 43.0682 43.5772 43.0784C46.7531 42.8742 49.9187 42.6086 53.0945 42.5064C54.3301 42.4656 54.3403 41.9856 54.1259 41.0256C53.5438 38.4315 53.5132 35.8171 53.8195 33.1617C54.4526 27.5957 54.8202 21.9988 54.2178 16.3919C54.1259 15.5136 54.1973 14.6455 52.7881 14.574C46.3854 14.2472 39.993 13.8183 33.6005 13.3689C32.3444 13.277 31.9462 13.5221 32.0585 14.9009C32.5282 20.4261 32.8244 25.9615 32.3649 31.5173C32.0789 34.9999 32.1708 38.5132 32.6508 41.9958C32.8346 43.3031 33.2635 43.7934 34.7033 43.6402C37.6443 43.3134 40.6159 43.2316 43.567 43.0478H43.5772ZM26.4217 24.7565C26.3911 19.0679 25.8703 13.4812 23.4705 8.21134C23.0518 7.29217 22.6332 7.02677 21.6529 7.32294C17.5886 8.55871 13.5244 9.77404 9.42953 10.8872C8.1735 11.2243 8.14287 11.7144 8.58197 12.7867C10.0831 16.4634 11.4719 20.2014 12.4317 24.0721C13.0853 26.6866 14.0043 29.1989 15.0255 31.7011C15.4544 32.753 15.8731 33.0901 17.0168 32.5284C18.9876 31.5582 21.0606 30.7717 23.0825 29.9138C25.3631 28.947 26.4796 27.2312 26.4319 24.7665L26.4217 24.7565Z" fill="#A3893E"/>
<path d="M62.193 60.9306C62.6627 60.2974 62.9589 59.8685 63.2856 59.4498C68.4527 52.9646 73.6096 46.4691 78.7971 40.0043C79.4404 39.2077 79.7264 38.4008 79.757 37.3693C80.0736 26.5844 88.7943 17.7298 99.6493 17.1272C110.657 16.5144 120.267 24.2661 121.849 35.0305C124.239 51.2486 108.687 63.8004 93.2976 58.0403C92.3786 57.693 91.8986 57.7952 91.3166 58.5918C89.1517 61.5434 86.8949 64.4235 84.7301 67.375C84.1786 68.1308 83.6987 68.2942 82.8715 67.8959C81.7585 67.3546 80.6148 66.8643 79.4506 66.4762C78.3376 66.1085 78.3478 65.7001 79.0218 64.8218C83.9131 58.4591 88.7534 52.0659 93.604 45.6828C95.5748 43.0887 95.3808 41.8937 92.736 39.9532C92.3888 39.6979 92.0416 39.4426 91.6842 39.1975C89.6214 37.7472 88.2531 37.9003 86.6805 39.8612C82.0648 45.6111 77.4594 51.3713 72.8539 57.1314C71.7817 58.4795 70.6584 59.797 69.6373 61.1757C69.1165 61.8906 68.6161 62.1256 67.7583 61.7681C66.0632 61.0634 64.2149 61.094 62.2032 60.8999L62.193 60.9306ZM86.9664 32.3446C88.3348 32.3957 89.3355 32.1607 90.3669 32.2628C93.2363 32.5284 95.2991 34.2851 97.4129 35.9396C101.263 38.9524 102.018 44.2019 99.2306 48.2156C98.5566 49.1858 97.8214 50.1152 97.1066 51.0548C95.8914 52.6684 95.9016 52.6988 97.9643 53.1073C104.204 54.3533 110.453 51.6367 113.792 46.2238C117.111 40.8416 116.744 34.0093 112.853 28.9743C109.044 24.0415 102.478 21.9171 96.5143 23.7861C92.1335 25.1546 88.9883 27.9531 86.9664 32.3446Z" fill="#A3893E"/>
<path d="M38.4202 145.912C39.6559 145.933 41.0651 146.423 42.3415 147.271C53.1863 154.481 64.031 161.712 74.8758 168.912C76.0501 169.688 76.7752 170.658 76.5913 172.119C76.4075 173.589 75.4579 174.304 74.1099 174.754C69.9742 176.153 69.0245 177.562 69.1981 181.893C69.2492 183.2 68.8101 184.221 67.6664 184.875C66.3695 185.61 65.2156 185.222 64.0515 184.446C56.1374 179.145 48.203 173.865 40.2788 168.575C37.4093 166.665 34.5398 164.755 31.6806 162.835C27.8614 160.272 27.0241 156.136 29.5872 152.316C30.3633 151.152 31.2006 150.018 32.089 148.946C33.6923 147.005 35.9184 145.923 38.41 145.902L38.4202 145.912ZM67.3907 171.588C67.0639 170.862 66.5942 170.699 66.2061 170.444C57.9857 164.949 49.7654 159.444 41.5144 154.001C37.6238 151.438 38.3079 150.651 34.9381 155.329C34.8768 155.421 34.8155 155.502 34.7543 155.594C34.1007 156.564 34.162 157.3 35.2444 157.984C37.7463 159.567 40.1767 161.242 42.6377 162.886C49.214 167.268 55.8005 171.629 62.3563 176.03C63.163 176.572 63.5715 176.684 63.9289 175.612C64.4191 174.141 65.5219 173.079 66.6452 172.078C66.8801 171.864 67.1864 171.731 67.3804 171.598L67.3907 171.588Z" fill="#A3893E"/>
<path d="M82.892 145.861C85.69 145.912 88.488 146.352 91.0409 147.802C96.0956 150.672 96.2182 156.319 91.1021 159.026C85.6185 161.916 79.8489 161.937 74.3653 159.026C69.239 156.319 69.3514 150.692 74.4061 147.802C77.0101 146.321 79.8591 145.882 82.9022 145.861H82.892ZM77.0611 153.47C80.4004 155.594 85.7921 155.523 88.3042 153.388C85.21 151.366 80.1451 151.376 77.0611 153.47Z" fill="#A3893E"/>
<path d="M141.895 71.7869C142.232 72.8082 141.435 73.4312 140.118 73.8295C138.984 74.1665 137.892 74.6363 136.809 75.1163C135.962 75.4942 135.676 75.3001 135.707 74.3605C135.768 72.1035 135.758 69.8364 135.206 67.6202C133.695 61.615 130.305 57.0293 124.882 54.0165C123.922 53.4854 123.647 53.1074 124.341 52.1372C124.923 51.3099 125.403 50.3704 125.73 49.4206C126.159 48.144 126.659 47.9296 127.874 48.6547C136.513 53.7611 141.047 61.3697 141.905 71.7971L141.895 71.7869Z" fill="#A3883E"/>
<path d="M186.877 60.992C188.838 61.0022 190.216 62.1765 190.308 63.9025C190.39 65.6285 189.113 66.9256 187.143 67.0175C184.406 67.1503 182.68 68.6515 181.608 71.0413C181.322 71.6745 181.169 72.3692 180.852 72.9922C180.148 74.3709 178.585 74.953 177.145 74.4321C175.797 73.9419 174.858 72.4916 175.205 71.0925C176.737 64.9749 181.414 61.1656 186.887 60.9818L186.877 60.992Z" fill="#A3883E"/>
<path d="M9.04142 51.8921C13.8817 51.9533 18.477 55.0989 20.2538 59.562C20.989 61.4105 20.4376 63.055 18.8242 63.8005C17.2209 64.546 15.5769 63.8922 14.7395 62.0743C13.5448 59.47 11.5739 58.0913 8.70443 57.9687C6.63147 57.887 5.3346 56.6003 5.43671 54.7926C5.53883 53.0054 6.94803 51.8716 9.04142 51.8921Z" fill="#A3883E"/>
<path d="M109.84 77.8127C109.943 78.548 109.708 78.8544 108.952 78.548C108.85 78.5072 108.758 78.4458 108.656 78.4151C105.191 77.1759 103.193 74.7385 102.662 71.1027C102.447 69.6117 102.253 68.1102 101.978 66.6396C101.814 65.8021 102.029 65.4345 102.907 65.4243C104.255 65.4243 105.582 65.1791 106.889 64.8523C107.543 64.6889 107.88 64.781 107.982 65.5265C108.574 69.6219 109.207 73.7173 109.83 77.8127H109.84Z" fill="#A3883E"/>
<path d="M11.5433 66.7724C11.5229 68.5086 10.6039 69.7444 9.07212 70.0814C7.63228 70.4082 6.30476 69.6831 5.65122 68.1001C5.40614 67.4976 5.11001 67.1911 4.47689 66.9868C2.97578 66.4966 2.15884 65.2099 2.36307 63.7903C2.58773 62.2992 3.46593 61.4106 4.96704 61.1246C8.51048 60.4506 11.5842 63.0855 11.5433 66.7622V66.7724Z" fill="#A3883E"/>
<path d="M92.93 71.409C93.2669 69.2949 93.5835 67.4362 93.8592 65.5774C93.9613 64.8523 94.2779 64.7807 94.9519 64.9134C96.2079 65.1688 97.4946 65.3628 98.771 65.4445C99.8024 65.5058 100.027 65.9043 99.8534 66.8643C99.4654 68.9783 99.159 71.1026 98.8527 73.2269C98.7506 73.9827 98.5157 74.3095 97.709 73.9724C96.3713 73.4107 95.0233 72.8796 93.6652 72.3689C93.0627 72.1442 92.7972 71.7868 92.9197 71.3988L92.93 71.409Z" fill="#A3883E"/>
<path d="M185.764 75.6473C185.815 72.3383 188.48 69.8465 191.574 70.1631C192.238 70.2346 192.545 70.3877 192.32 71.1333C192.014 72.1546 191.779 73.2065 191.544 74.2483C191.391 74.9223 191.135 75.4534 191.636 76.2909C192.391 77.5266 190.063 79.4771 188.317 79.1707C186.663 78.8848 185.723 77.5878 185.754 75.6371L185.764 75.6473Z" fill="#A3883E"/>
<path d="M143.478 151.979C144.499 151.979 145.52 151.928 146.541 151.989C148.144 152.081 149.257 153.215 149.349 154.757C149.441 156.401 148.451 157.8 146.807 157.902C144.509 158.045 142.191 158.045 139.893 157.902C138.249 157.8 137.218 156.391 137.31 154.777C137.391 153.266 138.535 152.081 140.108 151.989C141.231 151.918 142.365 151.979 143.488 151.979H143.478Z" fill="#A3883E"/>
</svg>
