<svg width="195" height="195" viewBox="0 0 195 195" fill="none" xmlns="http://www.w3.org/2000/svg">
<path d="M172.891 184.643C176.952 181.788 180.756 179.124 184.56 176.45C185.539 175.755 185.359 175.108 184.484 174.489C180.718 171.853 176.952 169.208 173.053 166.477C172.644 167.514 172.872 168.542 172.834 169.531C172.748 171.501 171.949 172.348 169.971 172.367C166.386 172.396 162.81 172.367 159.225 172.367C139.491 172.367 119.758 172.377 100.025 172.367C93.8145 172.367 88.4508 170.083 83.6197 166.249C78.4842 162.166 75.2127 156.942 73.8528 150.595C71.9698 141.764 73.6055 133.656 79.3306 126.5C82.7923 122.18 87.2525 118.906 91.1327 115.033C95.2695 110.913 100.053 107.297 102.041 101.397C104.199 94.9831 103.638 88.8739 100.177 83.0882C96.8292 77.4833 91.7699 74.1526 85.4552 72.7823C83.5151 72.3636 81.4799 72.2877 79.4923 72.2781C54.0243 72.2496 28.5659 72.2399 3.09786 72.297C1.36703 72.297 0.758368 71.9355 0.824938 70.0894C0.96759 66.0071 0.862891 66.007 4.89517 66.007C7.24416 66.007 9.58366 65.9595 11.9327 66.0261C12.9978 66.0546 13.4068 65.7787 13.4068 64.6272C13.3687 49.8965 13.3687 35.1751 13.4068 20.4443C13.4068 19.2739 12.9597 18.9694 11.9136 19.0741C11.3335 19.1312 10.7439 19.0931 10.1543 19.0741C7.95744 19.036 7.13964 18.2367 7.13013 16.01C7.11111 11.7754 7.11111 7.54065 7.13013 3.30604C7.13964 1.10784 7.9575 0.308594 10.2114 0.308594C28.9653 0.308594 47.7191 0.308594 66.4825 0.308594C68.8505 0.308594 69.6399 1.08892 69.6494 3.42034C69.6684 7.58834 69.6684 11.7658 69.6494 15.9338C69.6494 18.2747 68.86 19.0455 66.511 19.0741C64.4378 19.0995 63.4012 20.1781 63.4012 22.3097C63.4012 36.1269 63.4298 49.9439 63.3633 63.7516C63.3633 65.4455 63.677 66.0832 65.5505 66.0451C71.6655 65.9119 77.79 65.9119 83.9145 66.0165C89.6967 66.1212 94.699 68.3955 99.2258 71.9069C104.513 76.0083 107.889 81.3563 109.249 87.8462C111.085 96.6009 109.563 104.747 103.791 111.76C98.3317 118.383 91.399 123.531 85.4647 129.688C79.0549 136.34 77.9707 147.711 83.0491 155.505C86.5868 160.939 91.4751 164.336 97.7137 165.554C100.852 166.163 104.133 166.22 107.385 166.115C110.838 166.001 114.29 166.02 117.742 166.115C119.225 166.163 119.758 165.811 119.72 164.212C119.606 159.397 119.834 154.563 119.634 149.748C119.454 145.408 123.229 139.984 127.623 138.633C128.308 138.424 129.125 138.367 129.715 137.653C125.863 134.17 125.236 129.755 126.329 124.949C127.423 120.105 130.799 117.327 135.316 116.118C141.431 114.491 147.413 117.498 150.076 123.303C151.674 126.776 151.531 133.285 148.231 136.539C147.252 137.501 147.166 137.919 148.707 138.405C153.738 139.975 157.551 145.133 157.256 150.509C156.99 155.191 157.237 159.892 157.171 164.583C157.152 165.792 157.513 166.163 158.711 166.115C160.918 166.03 163.143 166.058 165.349 166.106C166.281 166.125 166.614 165.801 166.586 164.869C166.529 163.375 166.567 161.871 166.576 160.377C166.586 159.102 166.357 157.694 167.917 157.065C169.439 156.447 170.875 156.504 172.282 157.522C175.24 159.654 178.255 161.7 181.212 163.831C185.321 166.781 189.41 169.769 193.499 172.748C195.24 174.013 195.268 176.982 193.537 178.219C186.462 183.292 179.367 188.335 172.311 193.426C170.913 194.435 169.486 194.549 167.955 193.921C166.291 193.245 166.652 191.761 166.567 190.438C166.452 188.64 167.356 186.318 166.186 185.185C165.121 184.148 162.839 184.89 161.098 184.89C143.904 184.871 126.71 184.852 109.525 184.919C107.728 184.919 107.043 184.624 107.129 182.635C107.3 178.629 107.176 178.619 111.275 178.619C130.295 178.619 149.306 178.619 168.326 178.619C172.482 178.619 172.786 178.924 172.843 183.13C172.843 183.52 172.881 183.91 172.919 184.633L172.891 184.643ZM57.1341 42.5407C57.1341 35.3751 57.0961 28.2095 57.1627 21.0344C57.1722 19.588 56.9154 19.0265 55.2797 19.036C44.0102 19.1121 32.7503 19.1121 21.4808 19.036C19.8831 19.0265 19.5693 19.5404 19.5788 21.0154C19.6359 34.4995 19.6074 47.9932 19.6074 61.4774C19.6074 66.1402 19.6074 66.0927 24.3624 66.0356C25.5892 66.0166 25.903 65.6548 25.884 64.4748C25.8174 60.7636 25.8459 57.0429 25.8649 53.3317C25.8745 51.2096 26.6923 50.3723 28.7845 50.3723C35.1658 50.3533 41.547 50.3533 47.9283 50.3723C50.03 50.3723 50.848 51.2096 50.867 53.3126C50.8955 56.1103 50.867 58.9176 50.867 61.7153C50.867 66.0165 50.8669 65.9024 55.0799 66.0546C56.9344 66.1213 57.1722 65.4455 57.1531 63.8373C57.0771 56.7384 57.1151 49.6301 57.1151 42.5311L57.1341 42.5407ZM138.303 166.115C142.012 166.115 145.721 166.068 149.43 166.144C150.666 166.172 150.961 165.754 150.951 164.583C150.885 160.349 151.037 156.114 150.894 151.889C150.78 148.273 149.42 145.028 144.903 144.504C140.756 144.019 136.581 143.943 132.492 144.371C127.062 144.942 126.082 147.883 125.93 152.431C125.797 156.333 125.997 160.244 125.864 164.155C125.806 165.849 126.377 166.21 127.946 166.153C131.389 166.039 134.841 166.115 138.293 166.115H138.303ZM38.4087 12.822H59.0837C63.4203 12.822 63.3442 12.8222 63.4298 8.44481C63.4583 6.85564 62.9543 6.53209 61.4612 6.53209C46.8918 6.58918 32.3318 6.56066 17.7623 6.56066C13.3116 6.56066 13.3783 6.56062 13.3212 11.0331C13.3022 12.5367 13.7681 12.8601 15.1851 12.8506C22.9264 12.784 30.6581 12.822 38.3993 12.822H38.4087ZM38.3802 56.6241C36.7635 56.6241 35.1373 56.6907 33.5206 56.6051C32.3889 56.548 32.0751 56.9762 32.1036 58.0515C32.1702 60.2593 32.1607 62.4672 32.1036 64.6653C32.0751 65.655 32.3604 66.0451 33.4065 66.0261C36.716 65.969 40.0254 65.969 43.3254 66.0261C44.3716 66.0451 44.6664 65.6738 44.6378 64.6746C44.5808 62.4669 44.5713 60.2593 44.6378 58.0611C44.6664 56.9858 44.3716 56.548 43.2304 56.6051C41.6137 56.6907 39.9874 56.6241 38.3707 56.6241H38.3802ZM138.483 122.703C135.003 122.703 132.578 125.044 132.568 128.413C132.559 132.029 134.87 134.436 138.36 134.436C141.631 134.436 144.332 132.048 144.285 129.136C144.218 124.844 141.745 122.57 138.483 122.703Z" fill="#A58A3F"/>
<path d="M100.909 181.807C100.909 183.862 99.7044 184.89 97.2951 184.89C95.5326 184.89 94.6513 183.669 94.6513 181.227C94.6513 179.495 95.9511 178.629 98.5505 178.629C100.117 178.629 100.899 179.688 100.899 181.807H100.909Z" fill="#A58A3F"/>
<path d="M35.2514 28.6472C35.2514 30.6075 34.2591 31.5877 32.2747 31.5877C30.0874 31.5877 28.9938 30.5154 28.9938 28.3712C28.9938 26.3474 30.0177 25.3356 32.0655 25.3356C34.1133 25.3356 35.1753 26.4395 35.2514 28.6472Z" fill="#A58A3F"/>
<path d="M47.7571 28.4093C47.7571 30.5282 46.5873 31.5877 44.2479 31.5877C42.4219 31.5877 41.509 30.3346 41.509 27.8287C41.509 26.1602 42.777 25.3261 45.313 25.3261C46.9487 25.3261 47.7667 26.3506 47.7667 28.3998L47.7571 28.4093Z" fill="#A58A3F"/>
<path d="M35.2514 40.9132C35.2514 43.0385 34.0848 44.1012 31.7516 44.1012C29.913 44.1012 28.997 42.8515 29.0033 40.352C29.0033 38.6771 30.2681 37.8396 32.7978 37.8396C34.4399 37.8396 35.2609 38.861 35.2609 40.9037L35.2514 40.9132Z" fill="#A58A3F"/>
<path d="M44.695 44.1107C42.5647 44.1107 41.5026 42.9435 41.509 40.6089C41.509 38.7691 42.7549 37.8491 45.2465 37.8491C46.9203 37.8491 47.7572 39.1147 47.7572 41.646C47.7572 43.2891 46.7365 44.1107 44.695 44.1107Z" fill="#A58A3F"/>
</svg>
