<svg width="158" height="211" viewBox="0 0 158 211" fill="none" xmlns="http://www.w3.org/2000/svg">
<path d="M15.4311 104.995C15.4311 77.7972 15.4107 50.5902 15.4311 23.3928C15.4515 9.33017 23.5692 1.26356 37.7037 1.24316C64.9019 1.21257 92.1102 1.21257 119.308 1.24316C133.433 1.25336 141.469 9.20734 141.489 23.4332C141.54 78.4193 141.54 133.416 141.489 188.402C141.479 201.832 133.3 209.93 119.9 209.95C92.304 210.001 64.7081 209.991 37.1224 209.95C23.8445 209.93 15.4923 201.649 15.4617 188.361C15.3903 160.572 15.4413 132.783 15.4413 104.995H15.4311ZM137.502 92.1353C137.502 69.0273 137.573 45.9295 137.471 22.8317C137.43 12.3178 131.434 6.11787 121.43 5.78134C110.691 5.42442 110.457 5.38361 108.753 15.9587C108.08 20.1397 106.459 21.5059 102.298 21.4549C86.8379 21.2611 71.3572 21.1388 55.897 21.5161C50.5838 21.6487 48.7481 19.8436 48.0853 14.7651C46.9125 5.66873 46.627 5.70972 37.3875 5.7913C36.021 5.8015 34.634 5.76059 33.2777 5.92375C25.3844 6.87214 19.6939 13.0523 19.6939 21.0371C19.6735 68.0282 19.7755 115.009 19.6633 162C19.6531 166.324 21.244 167.119 25.1193 167.099C60.7512 166.977 96.3832 166.946 132.025 167.119C136.482 167.14 137.634 165.794 137.594 161.449C137.39 138.352 137.502 115.244 137.492 92.1458L137.502 92.1353ZM78.3531 171.239C60.5575 171.239 42.7619 171.351 24.9663 171.147C20.8565 171.096 19.4084 172.34 19.6837 176.44C19.9795 180.723 19.6633 185.037 19.6939 189.34C19.7653 198.845 25.9045 205.259 35.4295 205.3C64.1778 205.402 92.9261 205.391 121.674 205.3C130.812 205.269 137.033 199.13 137.451 189.921C137.655 185.434 137.247 180.906 137.573 176.44C137.879 172.32 136.421 171.096 132.321 171.147C114.332 171.341 96.3424 171.229 78.3429 171.229L78.3531 171.239ZM78.659 5.74051C71.8263 5.74051 65.0038 5.74051 58.1711 5.74051C50.6858 5.74051 51.0121 5.69944 51.9197 12.848C52.501 17.437 55.2035 17.3249 58.4873 17.2433C62.1892 17.1413 65.9013 17.2229 69.6032 17.2229C79.944 17.2229 90.2848 17.2435 100.626 17.213C107.091 17.1926 104.888 11.6753 105.633 8.51402C106.612 4.38394 102.777 5.86247 100.891 5.82168C93.4768 5.64832 86.0628 5.75047 78.6488 5.75047L78.659 5.74051Z" fill="#0E3E63" stroke="#0E3E63" stroke-width="2" stroke-miterlimit="10"/>
<path d="M156.307 157.299C156.307 169.424 156.307 181.549 156.307 193.675C156.307 195.816 156.603 198.549 153.564 198.498C150.769 198.457 151.33 195.755 151.33 193.909C151.3 169.659 151.29 145.408 151.351 121.158C151.351 119.21 150.576 116.151 153.89 116.366C156.847 116.559 156.297 119.415 156.307 121.505C156.327 133.437 156.317 145.368 156.317 157.289L156.307 157.299Z" fill="#0E3E63" stroke="#0E3E63" stroke-width="2" stroke-miterlimit="10"/>
<path d="M1.44963 53.2924C1.44963 41.3712 1.42922 29.4503 1.47002 17.5291C1.47002 15.7038 0.705174 12.8683 3.34647 12.7256C6.55885 12.5522 5.82459 15.6118 5.82459 17.6004C5.86538 41.6364 5.86537 65.6724 5.80419 89.7084C5.80419 91.6562 6.64043 94.8376 3.58102 94.7968C0.542 94.756 1.49042 91.585 1.48022 89.6372C1.39864 77.5223 1.43942 65.4073 1.43942 53.2924H1.44963Z" fill="#0E3E63" stroke="#0E3E63" stroke-width="2" stroke-miterlimit="10"/>
<path d="M68.206 36.731C68.1958 31.0611 71.7345 27.2883 76.7316 27.431C81.8816 27.5738 85.6243 31.9995 84.5433 37.5267C84.0538 40.0047 84.3903 40.9937 86.5931 41.9115C92.253 44.2672 96.6178 48.8361 104.144 47.592C111.17 46.4396 117.33 52.8843 119.104 60.0329C120.859 67.1203 118.258 75.0235 111.548 78.0522C106.02 80.5506 106.398 83.8754 107.407 88.2808C108.295 92.1355 109.885 95.6332 111.782 99.1004C115.861 106.565 111.599 113.959 103.094 114.407C101.533 114.489 99.9525 114.571 98.4024 114.407C93.4156 113.877 90.2542 114.958 87.4191 120.169C81.9428 130.244 67.3596 129.041 62.3421 118.456C60.7818 115.162 59.0074 114.173 55.7236 114.387C52.807 114.571 49.8495 114.57 46.9329 114.336C39.4373 113.734 35.0522 106.453 38.7846 99.9364C43.4553 91.7783 44.6485 83.0797 44.8015 73.9935C45.0462 58.7377 51.2161 47.1429 65.9318 41.3404C68.7975 40.2084 68.8281 38.7504 68.2264 36.721L68.206 36.731ZM75.1713 110.124C84.1558 110.124 93.1504 110.226 102.135 110.093C108.366 110.002 110.875 106.076 107.856 100.895C104.939 95.8782 103.257 90.5344 102.604 84.8849C102.288 82.1723 101.309 81.0711 98.6064 80.2247C86.0832 76.2782 82.0754 63.9081 89.9686 53.2311C92.0898 50.3655 91.1924 49.5192 88.8979 47.9794C76.5072 39.607 59.2011 44.8182 52.1849 59.044C49.2274 65.0402 49.0031 71.4546 48.8297 77.9098C48.6257 85.6091 47.3612 93.0122 43.5573 99.8956C39.886 106.555 42.15 110.083 49.9515 110.124C58.3547 110.175 66.7579 110.134 75.1611 110.124H75.1713ZM115.352 63.7958C115.239 56.7696 109.498 51.2731 102.461 51.4465C95.7509 51.6198 90.1114 57.2797 90.1318 63.8471C90.1522 70.8427 95.8019 76.4615 102.818 76.4513C109.916 76.4411 115.464 70.8322 115.352 63.7958ZM75.5078 122.749C77.6902 122.627 79.7298 122.015 81.4533 120.679C83.1461 119.374 85.3693 117.762 84.8594 115.641C84.2781 113.245 81.5552 114.57 79.791 114.438C77.0885 114.224 74.3452 114.193 71.6631 114.438C69.7459 114.621 66.7783 113.102 66.146 115.774C65.5749 118.16 68.104 119.761 70.0213 121.097C71.6529 122.239 73.5396 122.677 75.518 122.749H75.5078ZM76.2013 31.6017C74.0699 32.1014 72.3566 33.3967 72.428 35.8033C72.4994 38.1692 74.0801 39.7295 76.5582 39.6683C79.0363 39.6071 80.5253 38.0568 80.4539 35.6196C80.3825 33.2027 78.8018 31.8771 76.2013 31.6017Z" fill="#0E3E63" stroke="#0E3E63" stroke-width="2" stroke-miterlimit="10"/>
<path d="M78.8834 152.7C86.2974 152.7 93.7114 152.7 101.125 152.7C102.9 152.7 105.041 152.608 104.888 155.126C104.776 157.084 102.9 157.227 101.289 157.227C86.073 157.227 70.8575 157.227 55.6318 157.207C54.0511 157.207 52.1339 157.023 52.1339 155.014C52.1339 152.536 54.3265 152.72 56.05 152.71C63.6577 152.679 71.2655 152.7 78.8732 152.7H78.8834Z" fill="#0E3E63" stroke="#0E3E63" stroke-width="2" stroke-miterlimit="10"/>
<path d="M78.3531 143.185C74.8347 143.185 71.3266 143.206 67.8083 143.185C66.35 143.175 64.9528 142.747 64.8406 141.054C64.7285 139.239 66.2276 138.831 67.6349 138.81C74.8551 138.749 82.0754 138.759 89.2956 138.77C90.7641 138.77 92.2122 139.198 92.2122 140.911C92.2122 143.032 90.5091 143.206 88.8775 143.216C85.3591 143.226 81.851 143.216 78.3327 143.216C78.3327 143.216 78.3327 143.196 78.3327 143.185H78.3531Z" fill="#0E3E63" stroke="#0E3E63" stroke-width="2" stroke-miterlimit="10"/>
<path d="M78.3939 175.634C85.3898 175.552 91.0395 181.08 91.1619 188.137C91.2842 195.01 85.5835 200.813 78.6488 200.904C71.7346 200.986 66.0135 195.377 65.8809 188.381C65.7483 181.467 71.398 175.726 78.3939 175.634ZM87.0214 188.259C87.001 183.772 82.7485 179.724 78.2511 179.907C73.8762 180.091 70.1233 183.945 70.1233 188.29C70.1233 192.481 74.0801 196.581 78.2715 196.734C82.6465 196.897 87.0418 192.644 87.0214 188.259Z" fill="#0E3E63" stroke="#0E3E63" stroke-width="2" stroke-miterlimit="10"/>
<path d="M106.173 64.0305C106.173 66.172 106.235 68.3135 106.153 70.4449C106.102 71.638 105.674 72.8822 104.195 72.8006C102.788 72.719 102.339 71.5568 102.308 70.3025C102.227 67.1208 103.338 63.2556 97.658 63.9388C96.6586 64.0612 96.3221 62.0112 97.4439 61.1444C99.4529 59.5842 101.136 57.7691 102.818 55.8723C104.195 54.312 105.806 54.9447 106.051 57.0454C106.306 59.3501 106.112 61.7054 106.112 64.0305C106.143 64.0305 106.163 64.0305 106.194 64.0305H106.173Z" fill="#0E3E63" stroke="#0E3E63" stroke-width="2" stroke-miterlimit="10"/>
</svg>
