<svg width="195" height="195" viewBox="0 0 195 195" fill="none" xmlns="http://www.w3.org/2000/svg">
<path d="M0.264404 111.058V83.3981C2.26481 82.353 4.33493 81.7259 6.65382 81.8552C8.91299 81.9846 11.192 81.8752 13.4611 81.8851C14.2772 81.8851 14.8544 81.8054 15.0535 80.7603C17.1335 70.17 21.194 60.3958 27.1157 51.3781C27.7725 50.3728 27.9417 49.716 26.8868 48.7605C24.7769 46.8693 22.8462 44.7791 20.8358 42.7785C18.9548 40.9073 18.5766 38.6478 20.8159 36.468C26.0209 31.4117 31.1563 26.2958 36.2021 21.0703C38.511 18.6815 40.8299 19.1095 42.7905 21.14C44.8108 23.2302 46.8909 25.2507 48.9411 27.3011C49.4188 27.7788 49.7073 28.2367 50.613 27.6196C55.2508 24.4843 60.227 21.9361 65.3823 19.7564C70.1196 17.7558 75.0458 16.2329 80.0817 15.2973C81.7537 14.9887 81.6741 14.3618 81.7438 13.1674C82.0025 8.88747 80.7187 4.41836 83.2366 0.397217H110.894C113.482 3.09457 112.705 6.48873 112.785 9.6937C112.815 11.0772 112.835 12.4706 112.785 13.8541C112.745 14.7798 113.014 15.0584 114.009 15.2276C116.318 15.6157 118.607 16.1633 120.846 16.8999C123.772 17.8554 123.782 17.7957 125.623 15.4268C126.121 14.7898 126.599 14.1327 127.136 13.5355C132.749 7.31472 139.497 2.98509 147.747 1.15368C148.175 1.0641 148.683 1.084 148.404 0.397217H163.94C163.721 1.22334 164.338 1.06411 164.796 1.16364C172.051 2.71636 178.291 6.27975 183.446 11.4754C188.512 16.5715 191.926 22.7525 193.488 29.8591C193.588 30.317 193.428 30.934 194.254 30.715V46.2522C193.428 46.0332 193.598 46.6502 193.488 47.0981C191.07 56.723 185.875 64.4468 177.664 70.0704C177.047 70.4984 176.868 70.7074 177.107 71.5037C177.933 74.2906 178.878 77.0476 179.256 79.944C179.465 81.5167 180.202 81.8352 181.734 81.9247C185.954 82.1736 190.473 80.601 194.264 83.7562V111.038C193.15 111.197 192.762 112.412 191.518 112.641C188.94 113.119 186.382 112.86 183.824 112.91C179.923 112.989 179.853 112.91 178.958 116.682C176.649 126.436 172.618 135.434 167.214 143.835C166.607 144.78 166.766 145.158 167.433 145.815C169.603 147.925 171.762 150.055 173.852 152.235C175.395 153.838 176.141 155.938 173.783 158.257C168.607 163.333 163.432 168.429 158.416 173.665C156.018 176.163 153.679 175.705 151.688 173.635C149.808 171.674 147.787 169.862 145.976 167.842C145.011 166.767 144.314 166.827 143.219 167.583C141.487 168.777 139.686 169.882 137.835 170.888C130.49 174.849 122.797 177.905 114.566 179.438C113.004 179.726 112.845 180.294 112.755 181.687C112.467 185.967 114.089 190.545 110.914 194.397H83.6347C81.0471 191.7 81.8234 188.306 81.7438 185.101C81.7139 183.717 81.694 182.324 81.7438 180.941C81.7836 180.005 81.5149 179.736 80.5197 179.567C77.6534 179.089 74.8568 178.293 72.0801 177.447C64.4965 175.118 57.4702 171.604 50.8221 167.334C49.8368 166.707 49.4784 166.956 48.8514 167.603C46.7813 169.723 44.6715 171.803 42.5716 173.904C40.7603 175.715 38.5012 176.073 36.4012 173.913C31.2061 168.588 25.9513 163.303 20.597 158.137C19.0444 156.634 18.905 153.738 20.6367 152.215C22.8163 150.304 24.7171 148.084 26.8469 146.114C27.7824 145.248 27.9318 144.631 27.1954 143.526C21.9604 135.663 18.3078 127.083 15.8795 117.976C15.4515 116.373 15.561 114.213 14.5459 113.298C13.3616 112.233 11.1721 113.019 9.42046 112.959C6.26558 112.85 2.95156 113.546 0.304252 111.058H0.264404ZM155.56 76.5799C160.357 91.0023 160.337 105.226 155.042 119.309C149.728 133.463 140.303 144.282 127.146 151.538C104.465 164.04 76.3895 161.462 56.3854 143.825C35.9732 125.829 29.4844 97.0141 41.0987 71.5933C47.707 57.1511 58.5152 46.73 73.2147 40.5091C87.9143 34.2883 102.863 34.1789 118.08 39.0759C117.89 34.6268 118.527 30.5259 119.961 26.5645C120.408 25.3204 120.02 24.9721 118.766 24.6336C115.293 23.6781 111.79 22.9515 108.247 22.3443C105.958 21.9561 104.654 20.6722 104.773 18.1042C104.913 15.2078 104.773 12.2915 104.823 9.39505C104.843 8.33005 104.515 7.98177 103.44 7.99172C99.3395 8.04149 95.2292 8.05144 91.1288 7.99172C89.9744 7.97182 89.5962 8.29031 89.626 9.47476C89.7057 12.3811 89.5464 15.2875 89.6857 18.1839C89.8151 20.931 88.153 22.0756 85.9536 22.3842C82.0722 22.9316 78.3003 23.8472 74.5782 25.0317C66.5964 27.5698 59.162 31.1729 52.4641 36.269C50.0955 38.0706 48.0752 37.8415 45.8857 35.6618C44.0047 33.7905 42.1336 31.9094 40.2626 30.0382C39.8247 29.6003 39.5361 29.1027 38.8196 29.8392C35.6149 33.1338 32.3406 36.3586 28.9867 39.7128C31.216 41.9025 33.3457 44.0425 35.5353 46.1426C37.6153 48.1333 37.8443 50.3032 36.0031 52.7318C31.4251 58.7735 28.091 65.4521 25.5632 72.5687C24.0007 76.9581 22.9358 81.4571 22.1993 86.0555C21.841 88.305 20.8856 90.0566 17.7108 89.8874C14.8744 89.7381 12.028 89.8975 9.19158 89.8378C8.10678 89.8179 7.78829 90.1761 7.80819 91.2412C7.85796 95.4116 7.85796 99.5721 7.80819 103.743C7.79824 104.738 8.11676 105.056 9.10204 105.037C11.9384 104.987 14.7947 105.146 17.6211 104.987C20.9054 104.808 21.8311 106.579 22.2092 108.918C22.8163 112.71 23.6523 116.453 24.8267 120.106C27.3944 128.078 30.9771 135.523 36.0727 142.212C37.8741 144.581 37.6352 146.592 35.4557 148.781C33.5846 150.663 31.7136 152.534 29.8326 154.405C29.3848 154.853 28.9171 155.141 29.6535 155.848C32.9477 159.053 36.1722 162.328 39.4167 165.562C39.5958 165.423 39.7152 165.354 39.7949 165.264C41.855 163.214 43.9351 161.193 45.9554 159.103C47.9558 157.033 50.1154 156.804 52.5438 158.645C58.5749 163.233 65.2628 166.558 72.3786 169.086C76.7676 170.649 81.2661 171.724 85.864 172.45C88.1332 172.809 89.8648 173.794 89.6857 176.949C89.5265 179.716 89.6858 182.503 89.636 185.28C89.6161 186.325 89.7653 186.883 91.0392 186.853C95.2092 186.773 99.3693 186.793 103.539 186.843C104.544 186.853 104.833 186.504 104.823 185.529C104.773 182.692 104.933 179.836 104.773 177.009C104.594 173.744 106.366 172.799 108.714 172.43C112.506 171.823 116.248 170.997 119.901 169.813C127.873 167.245 135.317 163.651 142.005 158.565C144.334 156.794 146.364 157.003 148.444 159.063C150.365 160.974 152.306 162.875 154.187 164.836C154.794 165.473 155.132 165.533 155.789 164.856C158.695 161.87 161.631 158.914 164.626 156.017C165.403 155.271 165.174 154.903 164.537 154.286C162.626 152.444 160.775 150.553 158.904 148.672C156.734 146.482 156.575 144.541 158.446 142.093C163.054 136.071 166.348 129.372 168.896 122.256C170.439 117.926 171.513 113.487 172.23 108.948C172.608 106.559 173.574 104.768 176.758 104.947C179.525 105.106 182.312 104.947 185.088 104.997C186.143 105.017 186.681 104.857 186.661 103.583C186.581 99.4127 186.601 95.2524 186.651 91.082C186.661 90.0667 186.302 89.788 185.337 89.8079C182.501 89.8577 179.644 89.6985 176.818 89.8577C173.564 90.0369 172.598 88.265 172.25 85.9061C171.722 82.3428 170.857 78.8693 169.901 75.4055C169.802 75.0572 169.851 74.1015 168.717 74.5096C164.527 75.9926 160.198 76.7989 155.55 76.56L155.56 76.5799ZM151.081 97.4221C151.002 95.4116 150.942 93.4209 150.723 91.4202C150.176 86.3142 148.832 81.4669 146.931 76.7291C146.543 75.7736 145.966 75.3058 144.971 75.0072C139.159 73.2555 134.073 70.2197 129.714 66.0194C124.957 61.4508 121.583 55.9965 119.662 49.6861C119.383 48.7704 118.985 48.1533 118.109 47.7851C112.457 45.4162 106.565 44.0126 100.464 43.6543C95.7069 43.3756 90.9794 43.7539 86.2919 44.7293C76.6979 46.7399 68.348 51.1492 61.0928 57.6587C55.4498 62.7249 51.1405 68.8063 48.0354 75.7338C45.2587 81.9148 43.7261 88.4044 43.4872 95.1627C43.3877 97.9098 43.4374 100.657 43.7758 103.434C44.4028 108.58 45.5971 113.556 47.6572 118.294C52.1755 128.685 59.1919 136.997 68.8158 143.058C76.3596 147.806 84.62 150.563 93.4776 151.19C100.743 151.708 107.878 150.742 114.805 148.254C126.529 144.044 135.765 136.827 142.513 126.327C148.185 117.508 150.982 107.893 151.091 97.452L151.081 97.4221ZM186.283 38.5782C186.84 22.5136 173.375 8.26039 156.416 8.16085C139.875 8.07127 126.927 20.8613 126.061 36.7667C125.056 55.2002 140.094 67.9505 154.644 68.6571C172.688 69.533 186.999 54.1253 186.283 38.5782Z" fill="#A58A3F"/>
<path d="M58.9829 97.3226C59.1321 76.3012 75.9317 58.8928 97.8566 59.1815C118.368 59.4502 135.795 75.9826 135.466 98.1685C135.168 118.513 118.617 135.971 96.5328 135.643C76.0709 135.334 59.0724 118.822 58.9729 97.3127L58.9829 97.3226ZM127.554 97.3921C127.186 80.5113 114.138 67.5721 98.0755 67.184C80.4301 66.756 67.1438 80.7703 67.0045 97.0638C66.8651 114.273 80.4898 127.541 96.9808 127.66C114.039 127.78 127.246 114.183 127.554 97.3921Z" fill="#A58A3F"/>
<path d="M160.138 30.7548C160.138 34.537 160.148 38.3292 160.138 42.1114C160.138 44.4305 158.565 46.1825 156.495 46.2621C154.177 46.3517 152.236 44.6696 152.216 42.2808C152.146 34.5769 152.146 26.883 152.216 19.1792C152.236 16.6908 153.898 15.4665 156.675 15.576C158.804 15.6556 160.128 17.0989 160.138 19.3882C160.148 23.1704 160.138 26.9625 160.138 30.7448V30.7548Z" fill="#A58A3F"/>
<path d="M160.138 57.3999C160.158 59.6892 158.486 61.4012 156.217 61.4211C154.057 61.441 152.146 59.5399 152.186 57.3999C152.216 55.2799 154.107 53.4784 156.316 53.4684C158.416 53.4585 160.118 55.2003 160.138 57.3999Z" fill="#A58A3F"/>
<path d="M106.724 85.0204C106.734 88.1855 103.738 89.9571 100.922 88.4044C99.7176 87.7375 98.6229 86.9313 97.1102 87.1602C95.9856 87.3294 94.9703 87.6381 94.6419 88.8126C94.2737 90.1165 95.2192 90.6738 96.2045 91.2412C98.5731 92.6147 101.32 93.1025 103.669 94.5159C107.182 96.616 109.063 99.7911 108.894 103.733C108.685 108.421 106.376 112.143 102.046 114.303C101.31 114.671 101.031 114.92 101.011 115.726C100.942 118.673 99.5086 120.414 97.1798 120.524C94.9604 120.623 93.3681 118.991 93.0994 116.154C93.0098 115.179 92.5321 115.039 91.706 114.781C89.2876 114.014 86.8095 113.228 85.864 110.421C85.2868 108.709 85.9138 107.336 87.118 106.291C88.2327 105.325 89.6559 104.937 91.089 105.733C93.0396 106.818 95.0202 107.565 97.3291 107.286C99.0708 107.077 100.613 105.743 100.773 103.912C100.922 102.2 99.7375 101.403 98.3641 100.846C95.3883 99.6417 92.3231 98.6862 89.7255 96.6159C88.0436 95.2722 86.9787 93.5702 86.7399 91.6691C86.1626 87.1204 86.9091 83.2288 92.1042 80.3523C92.98 79.8646 93.0795 79.2774 93.1093 78.4115C93.1989 76.0625 94.9704 74.3006 97.0803 74.3106C99.2101 74.3205 100.952 76.0523 101.011 78.4312C101.041 79.5061 101.609 79.7351 102.425 80.0238C105.181 80.9893 106.714 82.8306 106.724 85.0303V85.0204Z" fill="#A58A3F"/>
</svg>
