<svg width="226" height="181" viewBox="0 0 226 181" fill="none" xmlns="http://www.w3.org/2000/svg">
<path d="M34.9804 180.031C35.4699 179.328 34.6337 179.307 34.3991 179.032C33.3895 177.808 32.9612 176.452 33.4915 174.943C34.0218 173.454 35.0926 172.495 36.7141 172.322C37.5707 172.23 38.4478 172.21 39.3146 172.21C95.0571 172.21 150.81 172.21 206.552 172.21C214.69 172.21 217.831 169.028 217.831 160.89C217.831 126.259 217.831 91.6377 217.831 57.0063C217.831 43.7594 217.831 30.5227 217.872 17.2758C217.893 10.994 212.641 7.59822 208.235 7.60842C144.997 7.7104 81.7589 7.67975 18.531 7.67975C13.1362 7.67975 9.12837 11.5652 9.07738 16.9394C9.03658 21.3346 9.12838 25.7297 9.08758 30.1249C9.07739 31.3283 9.47511 31.828 10.6785 31.7159C11.321 31.6547 11.9838 31.7159 12.6365 31.7159C75.0078 31.7159 137.369 31.7159 199.74 31.7159C200.872 31.7159 202.014 31.624 203.116 32.0523C204.778 32.6846 205.941 34.561 205.696 36.3252C205.42 38.2628 203.88 39.6701 201.943 39.7517C201.402 39.7721 200.862 39.7517 200.311 39.7517C137.399 39.7517 74.4877 39.7517 11.5759 39.7517C9.93063 39.7517 9.10797 40.5675 9.10797 42.1991C9.10797 81.6541 9.10797 121.109 9.10797 160.574C9.10797 161.982 9.00599 163.389 9.27114 164.796C9.96461 168.488 12.7793 171.374 16.4913 172.047C18.4902 172.404 20.3564 172.883 20.9581 175.188C21.3252 176.595 21.0397 177.849 20.1321 179.012C19.9281 179.267 19.0714 179.379 19.6731 180.042H13.4829C13.4523 179.134 12.6161 179.297 12.1266 179.093C4.81458 176.136 1.18409 170.017 1.02092 162.746C0.816964 153.63 1.01072 144.513 1.01072 135.396C1.01072 96.5938 1.0617 57.7914 0.969916 18.9891C0.94952 11.3204 3.71321 5.42617 10.4541 1.55103C10.6683 1.42866 11.1578 1.39806 10.8824 0.908569H216.088C215.843 1.6836 216.597 1.58158 216.914 1.76514C222.961 5.36494 225.847 10.8411 225.929 17.7042C226.061 30.0128 225.949 42.3317 225.949 54.6505C225.949 90.5669 225.969 126.483 225.959 162.389C225.959 170.14 221.605 176.391 214.354 179.216C213.915 179.389 213.232 179.297 213.161 180.031H34.9906H34.9804Z" fill="#0E3E63"/>
<path d="M21.468 118.203C21.3966 111.136 26.0163 104.813 33.1856 102.254C36.3979 101.101 39.6409 100.02 42.8839 98.9697C46.2799 97.8684 47.8198 98.6434 48.9619 102.039C51.0525 108.26 53.133 114.481 55.1318 120.732C55.5397 122.017 56.0292 122.567 57.5079 122.414C66.6964 121.456 75.9052 121.242 85.1344 121.904C93.6498 122.516 102.053 123.699 110.375 125.565C111.048 125.718 111.874 126.188 112.363 125.688C112.822 125.229 112.231 124.474 112.027 123.883C106.642 107.505 101.237 91.1277 95.8322 74.7604C95.2203 72.9044 94.6084 71.0587 93.9659 69.2129C93.813 68.7744 93.9048 68.1217 93.3031 68.0197C92.7422 67.9279 92.5178 68.5295 92.2221 68.8865C87.8471 74.0873 83.1254 78.9414 78.1386 83.5508C72.2645 88.976 65.9927 93.8811 59.2824 98.2355C56.8451 99.8162 54.4485 99.5103 53.1228 97.4911C51.797 95.472 52.4089 93.1571 54.8666 91.5255C61.8625 86.9059 68.3586 81.6643 74.4877 75.9638C78.9442 71.8235 83.0948 67.3773 86.8783 62.6048C88.8567 60.1063 91.3043 58.7704 94.4963 59.2293C97.933 59.7289 99.9114 61.9521 100.962 65.1338C105.265 78.2073 109.569 91.2909 113.883 104.364C116.086 111.054 118.349 117.734 120.491 124.444C121.99 129.135 119.685 133.193 114.933 134.509C113.862 134.805 112.802 134.835 111.721 134.529C98.0656 130.623 84.1146 129.645 69.9903 130.012C65.2075 130.134 60.4654 130.593 55.7029 130.96C52.1132 131.235 48.86 132.969 45.4436 134.009C42.7921 134.825 42.8125 134.896 44.1077 137.344C46.953 142.718 49.839 148.062 52.6129 153.466C53.2961 154.802 53.9488 154.813 54.9278 153.946C55.5703 153.375 56.2842 152.834 56.8247 152.182C58.4971 150.152 58.4767 149.316 56.896 147.246C55.5193 145.431 54.1324 143.626 52.7862 141.78C51.3075 139.74 51.6135 137.507 53.5001 136.028C55.2847 134.631 57.5181 134.957 59.0784 136.936C60.9345 139.271 62.8007 141.606 64.5242 144.034C66.1967 146.389 66.4414 149.03 65.6664 151.804C64.1061 157.444 60.0064 160.686 54.9278 162.797C52.001 164.011 48.2685 162.053 46.545 158.779C42.5984 151.294 38.6517 143.809 34.7561 136.294C34.1952 135.213 33.4915 134.55 32.3391 134.101C25.5574 131.429 21.519 125.474 21.4476 118.223L21.468 118.203ZM29.9222 117.795C29.8712 122.302 32.7777 125.739 37.1832 126.687C40.8851 127.493 43.9037 125.474 47.1875 124.525C47.6668 124.383 47.5954 123.985 47.473 123.577C45.8821 118.509 44.2912 113.44 42.7207 108.372C42.4658 107.556 42.0885 107.424 41.293 107.709C39.4676 108.382 37.5707 108.872 35.7555 109.575C32.0842 111.003 29.963 114.062 29.9222 117.785V117.795Z" fill="#0E3E63"/>
<path d="M189.695 146.43C189.777 152.12 186.503 156.21 181.424 157.801C179.67 158.351 177.855 158.82 175.999 158.667C175.071 158.586 174.643 158.953 174.245 159.718C173.001 162.114 170.951 162.91 168.738 161.951C166.709 161.074 165.954 158.902 166.943 156.424C167.259 155.629 167.147 155.159 166.525 154.599C165.138 153.365 164.016 151.896 163.221 150.213C162.232 148.123 162.884 146.063 164.883 144.941C166.76 143.881 168.86 144.411 170.115 146.338C170.767 147.338 171.4 148.337 172.369 149.082C174.785 150.958 178.865 150.795 181.088 148.704C182.169 147.684 181.883 146.206 180.323 145.41C178.396 144.431 176.397 143.575 174.429 142.677C170.176 140.74 167.83 137.528 167.851 132.765C167.871 128.125 170.982 125.739 174.53 123.74C176.601 122.567 178.905 122.149 181.261 122.139C182.23 122.139 182.822 121.864 183.311 120.946C184.627 118.468 186.564 117.703 188.634 118.692C190.766 119.712 191.449 121.69 190.48 124.321C190.174 125.147 190.388 125.627 191 126.137C192.346 127.269 193.346 128.676 194.152 130.236C195.233 132.327 194.59 134.529 192.571 135.682C190.725 136.732 188.39 136.09 187.227 134.132C186.075 132.194 184.647 130.675 182.291 130.267C180.374 129.94 178.61 130.359 177.009 131.389C175.244 132.52 175.285 134.223 177.151 135.202C179.354 136.365 181.659 137.344 183.892 138.445C187.635 140.301 189.46 143.422 189.695 146.41V146.43Z" fill="#0E3E63"/>
<path d="M145.619 105.17C145.527 104.099 146.19 103.222 146.833 102.335C157.775 87.2221 168.718 72.0989 179.66 56.9859C180.68 55.5786 181.659 54.1509 182.73 52.7844C184.229 50.857 186.523 50.4695 188.339 51.7544C190.276 53.1209 190.643 55.3848 189.134 57.4855C181.098 68.6826 173.031 79.8492 164.975 91.0259C161.426 95.9514 157.867 100.887 154.328 105.823C153.594 106.843 152.86 107.852 151.789 108.525C150.483 109.351 149.097 109.759 147.659 108.913C146.302 108.107 145.568 106.904 145.609 105.17H145.619Z" fill="#0E3E63"/>
<path d="M149.331 79.9919C142.682 79.9001 137.226 74.3831 137.348 67.7648C137.471 61.0955 142.539 55.6703 150.749 55.7009C157.153 55.7213 162.742 61.5341 162.619 67.9688C162.507 73.8223 158.152 80.3896 149.321 79.9919H149.331ZM150.738 71.8745C152.758 71.8541 154.471 70.0389 154.471 67.9178C154.471 65.7253 152.523 63.7469 150.453 63.8183C148.311 63.8999 146.343 65.8987 146.404 67.9382C146.476 70.1817 148.372 71.9051 150.749 71.8745H150.738Z" fill="#0E3E63"/>
<path d="M177.784 15.8075C185.493 15.8075 193.193 15.8075 200.903 15.8075C202.065 15.8075 203.207 15.9094 204.166 16.6028C205.359 17.4696 205.879 18.7241 205.686 20.1619C205.492 21.6304 204.778 22.8337 203.32 23.4252C202.555 23.7413 201.759 23.8331 200.933 23.8331C185.412 23.8331 169.901 23.8331 154.379 23.8331C152.503 23.8331 150.942 23.2824 150.045 21.5284C149.28 20.0191 149.535 18.5812 150.555 17.2657C151.473 16.0726 152.768 15.8075 154.175 15.8075C162.038 15.8075 169.911 15.8075 177.773 15.8075H177.784Z" fill="#0E3E63"/>
<path d="M185.198 104.864C178.049 104.885 172.583 99.6531 172.562 92.7799C172.542 86.1412 178.1 80.7465 184.932 80.7567C191.571 80.7567 197.078 86.2533 197.109 92.8614C197.129 99.0718 191.969 105.201 185.198 104.864ZM185.187 88.8742C182.73 88.8538 180.976 90.4956 180.976 92.8105C180.976 95.1866 182.72 97.0527 184.973 97.0833C187.176 97.1139 189.114 95.1764 189.134 92.9431C189.144 90.7608 187.339 88.8946 185.187 88.8742Z" fill="#0E3E63"/>
<path d="M126.834 93.147C126.559 96.5225 125.101 99.9081 121.348 101.968C119.583 102.927 117.819 102.61 116.575 101.122C115.372 99.6939 115.321 97.7054 116.493 96.1757C116.759 95.8392 117.075 95.523 117.401 95.2579C118.615 94.2789 119.145 93.0655 118.676 91.5256C118.196 89.9246 117.013 89.17 115.433 88.9864C113.954 88.813 112.71 88.2725 111.955 86.906C110.354 83.9997 112.384 80.9098 115.861 80.9506C121.796 81.022 126.824 86.2942 126.824 93.1368L126.834 93.147Z" fill="#0E3E63"/>
<path d="M17.1848 19.6723C17.2052 17.4798 19.0816 15.7667 21.3864 15.8279C23.5382 15.8891 25.2719 17.7348 25.2005 19.8866C25.1189 22.0179 23.2628 23.833 21.1824 23.8024C19.0204 23.7719 17.1746 21.8546 17.195 19.6723H17.1848Z" fill="#0E3E63"/>
<path d="M33.2468 15.8279C35.3884 15.7973 37.2036 17.5614 37.2342 19.703C37.2648 21.8037 35.4802 23.7107 33.3997 23.7923C31.2174 23.8738 29.2083 21.9057 29.2185 19.6826C29.2185 17.5818 31.0338 15.8585 33.257 15.8279H33.2468Z" fill="#0E3E63"/>
<path d="M49.2679 19.7438C49.2781 21.8649 47.4934 23.7209 45.3926 23.7922C43.2102 23.8636 41.2216 21.8649 41.2522 19.6418C41.2828 17.5105 43.0674 15.8381 45.311 15.8279C47.4526 15.8279 49.2577 17.6022 49.2679 19.7438Z" fill="#0E3E63"/>
</svg>
